<?xml version="1.0" encoding="UTF-8" standalone="no"?>
<!DOCTYPE svg PUBLIC "-//W3C//DTD SVG 1.1//EN"
 "http://www.w3.org/Graphics/SVG/1.1/DTD/svg11.dtd">
<!-- Generated by graphviz version 13.1.2 (20250808.2320)
 -->
<!-- Title: EC2 Patching Orchestrator (Hub&#45;and&#45;Spoke) Pages: 1 -->
<svg width="1691pt" height="1650pt"
 viewBox="0.00 0.00 1691.00 1650.00" xmlns="http://www.w3.org/2000/svg" xmlns:xlink="http://www.w3.org/1999/xlink">
<g id="graph0" class="graph" transform="scale(1 1) rotate(0) translate(36 1613.75)">
<title>EC2 Patching Orchestrator (Hub&#45;and&#45;Spoke)</title>
<polygon fill="white" stroke="none" points="-36,36 -36,-1613.75 1655.2,-1613.75 1655.2,36 -36,36"/>
<text xml:space="preserve" text-anchor="middle" x="809.6" y="-1554.75" font-family="Sans-Serif" font-size="20.00" fill="#2d3436">EC2 Patching Orchestrator (Hub&#45;and&#45;Spoke)</text>
<g id="clust1" class="cluster">
<title>cluster_Hub Account (Control Plane)</title>
<path fill="#e5f5fd" stroke="#aeb6be" d="M20,-79C20,-79 1599.2,-79 1599.2,-79 1605.2,-79 1611.2,-85 1611.2,-91 1611.2,-91 1611.2,-918 1611.2,-918 1611.2,-924 1605.2,-930 1599.2,-930 1599.2,-930 20,-930 20,-930 14,-930 8,-924 8,-918 8,-918 8,-91 8,-91 8,-85 14,-79 20,-79"/>
<text xml:space="preserve" text-anchor="middle" x="91.75" y="-914.6" font-family="Sans-Serif" font-size="12.00" fill="#2d3436">Hub Account (Control Plane)</text>
</g>
<g id="clust2" class="cluster">
<title>cluster_Orchestration</title>
<path fill="#ebf3e7" stroke="#aeb6be" d="M479.35,-144C479.35,-144 745.95,-144 745.95,-144 751.95,-144 757.95,-150 757.95,-156 757.95,-156 757.95,-338 757.95,-338 757.95,-344 751.95,-350 745.95,-350 745.95,-350 479.35,-350 479.35,-350 473.35,-350 467.35,-344 467.35,-338 467.35,-338 467.35,-156 467.35,-156 467.35,-150 473.35,-144 479.35,-144"/>
<text xml:space="preserve" text-anchor="middle" x="510.6" y="-334.6" font-family="Sans-Serif" font-size="12.00" fill="#2d3436">Orchestration</text>
</g>
<g id="clust3" class="cluster">
<title>cluster_Patching Lambdas</title>
<path fill="#ebf3e7" stroke="#aeb6be" d="M826.95,-124C826.95,-124 919.75,-124 919.75,-124 925.75,-124 931.75,-130 931.75,-136 931.75,-136 931.75,-828 931.75,-828 931.75,-834 925.75,-840 919.75,-840 919.75,-840 826.95,-840 826.95,-840 820.95,-840 814.95,-834 814.95,-828 814.95,-828 814.95,-136 814.95,-136 814.95,-130 820.95,-124 826.95,-124"/>
<text xml:space="preserve" text-anchor="middle" x="870.58" y="-824.6" font-family="Sans-Serif" font-size="12.00" fill="#2d3436">Patching Lambdas</text>
</g>
<g id="clust4" class="cluster">
<title>cluster_Approval Flow</title>
<path fill="#ebf3e7" stroke="#aeb6be" d="M28,-358C28,-358 572.15,-358 572.15,-358 578.15,-358 584.15,-364 584.15,-370 584.15,-370 584.15,-702 584.15,-702 584.15,-708 578.15,-714 572.15,-714 572.15,-714 28,-714 28,-714 22,-714 16,-708 16,-702 16,-702 16,-370 16,-370 16,-364 22,-358 28,-358"/>
<text xml:space="preserve" text-anchor="middle" x="61.88" y="-698.6" font-family="Sans-Serif" font-size="12.00" fill="#2d3436">Approval Flow</text>
</g>
<g id="clust5" class="cluster">
<title>cluster_Data &amp; Storage</title>
<path fill="#ebf3e7" stroke="#aeb6be" d="M1105.75,-267C1105.75,-267 1198.55,-267 1198.55,-267 1204.55,-267 1210.55,-273 1210.55,-279 1210.55,-279 1210.55,-670 1210.55,-670 1210.55,-676 1204.55,-682 1198.55,-682 1198.55,-682 1105.75,-682 1105.75,-682 1099.75,-682 1093.75,-676 1093.75,-670 1093.75,-670 1093.75,-279 1093.75,-279 1093.75,-273 1099.75,-267 1105.75,-267"/>
<text xml:space="preserve" text-anchor="middle" x="1141.88" y="-666.6" font-family="Sans-Serif" font-size="12.00" fill="#2d3436">Data &amp; Storage</text>
</g>
<g id="clust6" class="cluster">
<title>cluster_Notifications &amp; Observability</title>
<path fill="#ebf3e7" stroke="#aeb6be" d="M1288.15,-297C1288.15,-297 1429.4,-297 1429.4,-297 1435.4,-297 1441.4,-303 1441.4,-309 1441.4,-309 1441.4,-641 1441.4,-641 1441.4,-647 1435.4,-653 1429.4,-653 1429.4,-653 1288.15,-653 1288.15,-653 1282.15,-653 1276.15,-647 1276.15,-641 1276.15,-641 1276.15,-309 1276.15,-309 1276.15,-303 1282.15,-297 1288.15,-297"/>
<text xml:space="preserve" text-anchor="middle" x="1358.78" y="-637.6" font-family="Sans-Serif" font-size="12.00" fill="#2d3436">Notifications &amp; Observability</text>
</g>
<g id="clust7" class="cluster">
<title>cluster_Security &amp; Keys</title>
<path fill="#ebf3e7" stroke="#aeb6be" d="M1498.4,-297C1498.4,-297 1591.2,-297 1591.2,-297 1597.2,-297 1603.2,-303 1603.2,-309 1603.2,-309 1603.2,-461 1603.2,-461 1603.2,-467 1597.2,-473 1591.2,-473 1591.2,-473 1498.4,-473 1498.4,-473 1492.4,-473 1486.4,-467 1486.4,-461 1486.4,-461 1486.4,-309 1486.4,-309 1486.4,-303 1492.4,-297 1498.4,-297"/>
<text xml:space="preserve" text-anchor="middle" x="1535.28" y="-457.6" font-family="Sans-Serif" font-size="12.00" fill="#2d3436">Security &amp; Keys</text>
</g>
<g id="clust8" class="cluster">
<title>cluster_Deployment</title>
<path fill="#ebf3e7" stroke="#aeb6be" d="M28,-722C28,-722 120.8,-722 120.8,-722 126.8,-722 132.8,-728 132.8,-734 132.8,-734 132.8,-886 132.8,-886 132.8,-892 126.8,-898 120.8,-898 120.8,-898 28,-898 28,-898 22,-898 16,-892 16,-886 16,-886 16,-734 16,-734 16,-728 22,-722 28,-722"/>
<text xml:space="preserve" text-anchor="middle" x="55.5" y="-882.6" font-family="Sans-Serif" font-size="12.00" fill="#2d3436">Deployment</text>
</g>
<g id="clust9" class="cluster">
<title>cluster_Spoke Accounts (Targets)</title>
<path fill="#e5f5fd" stroke="#aeb6be" d="M1081.75,-1067C1081.75,-1067 1428.68,-1067 1428.68,-1067 1434.68,-1067 1440.68,-1073 1440.68,-1079 1440.68,-1079 1440.68,-1525 1440.68,-1525 1440.68,-1531 1434.68,-1537 1428.68,-1537 1428.68,-1537 1081.75,-1537 1081.75,-1537 1075.75,-1537 1069.75,-1531 1069.75,-1525 1069.75,-1525 1069.75,-1079 1069.75,-1079 1069.75,-1073 1075.75,-1067 1081.75,-1067"/>
<text xml:space="preserve" text-anchor="middle" x="1145.25" y="-1521.6" font-family="Sans-Serif" font-size="12.00" fill="#2d3436">Spoke Accounts (Targets)</text>
</g>
<g id="clust10" class="cluster">
<title>cluster_Spoke 1..N</title>
<path fill="#ebf3e7" stroke="#aeb6be" d="M1089.75,-1075C1089.75,-1075 1420.68,-1075 1420.68,-1075 1426.68,-1075 1432.68,-1081 1432.68,-1087 1432.68,-1087 1432.68,-1493 1432.68,-1493 1432.68,-1499 1426.68,-1505 1420.68,-1505 1420.68,-1505 1089.75,-1505 1089.75,-1505 1083.75,-1505 1077.75,-1499 1077.75,-1493 1077.75,-1493 1077.75,-1087 1077.75,-1087 1077.75,-1081 1083.75,-1075 1089.75,-1075"/>
<text xml:space="preserve" text-anchor="middle" x="1115" y="-1489.6" font-family="Sans-Serif" font-size="12.00" fill="#2d3436">Spoke 1..N</text>
</g>
<g id="clust11" class="cluster">
<title>cluster_Regions</title>
<path fill="#ece8f6" stroke="#aeb6be" d="M1097.75,-1083C1097.75,-1083 1412.68,-1083 1412.68,-1083 1418.68,-1083 1424.68,-1089 1424.68,-1095 1424.68,-1095 1424.68,-1287 1424.68,-1287 1424.68,-1293 1418.68,-1299 1412.68,-1299 1412.68,-1299 1097.75,-1299 1097.75,-1299 1091.75,-1299 1085.75,-1293 1085.75,-1287 1085.75,-1287 1085.75,-1095 1085.75,-1095 1085.75,-1089 1091.75,-1083 1097.75,-1083"/>
<text xml:space="preserve" text-anchor="middle" x="1114.75" y="-1283.6" font-family="Sans-Serif" font-size="12.00" fill="#2d3436">Regions</text>
</g>
<g id="clust12" class="cluster">
<title>cluster_Region A..Z</title>
<path fill="#fdf7e3" stroke="#aeb6be" d="M1105.75,-1091C1105.75,-1091 1404.68,-1091 1404.68,-1091 1410.68,-1091 1416.68,-1097 1416.68,-1103 1416.68,-1103 1416.68,-1255 1416.68,-1255 1416.68,-1261 1410.68,-1267 1404.68,-1267 1404.68,-1267 1105.75,-1267 1105.75,-1267 1099.75,-1267 1093.75,-1261 1093.75,-1255 1093.75,-1255 1093.75,-1103 1093.75,-1103 1093.75,-1097 1099.75,-1091 1105.75,-1091"/>
<text xml:space="preserve" text-anchor="middle" x="1132.88" y="-1251.6" font-family="Sans-Serif" font-size="12.00" fill="#2d3436">Region A..Z</text>
</g>
<!-- eece700c2c2a4a1da691e9e4b6ac2fdf -->
<g id="node1" class="node">
<title>eece700c2c2a4a1da691e9e4b6ac2fdf</title>
<image xlink:href="C:\Workspace\code\patching\ec2\.venv\Lib\site-packages\resources/aws/integration\eventbridge.png" width="100.8px" height="100.8px" preserveAspectRatio="xMinYMin meet" x="475.35" y="-285.4"/>
<text xml:space="preserve" text-anchor="middle" x="525.75" y="-172.45" font-family="Segoe UI" font-size="12.00" fill="#2d3436">Schedule / Trigger</text>
</g>
<!-- 5d373d31bd324154a3d8862dcbb70b87 -->
<g id="node2" class="node">
<title>5d373d31bd324154a3d8862dcbb70b87</title>
<image xlink:href="C:\Workspace\code\patching\ec2\.venv\Lib\site-packages\resources/aws/integration\step-functions.png" width="100.8px" height="100.8px" preserveAspectRatio="xMinYMin meet" x="649.15" y="-285.4"/>
<text xml:space="preserve" text-anchor="middle" x="699.55" y="-175.3" font-family="Segoe UI" font-size="12.00" fill="#2d3436">State Machine</text>
<text xml:space="preserve" text-anchor="middle" x="699.55" y="-158.05" font-family="Segoe UI" font-size="12.00" fill="#2d3436">Waves → Accounts → Regions</text>
</g>
<!-- eece700c2c2a4a1da691e9e4b6ac2fdf&#45;&gt;5d373d31bd324154a3d8862dcbb70b87 -->
<g id="edge1" class="edge">
<title>eece700c2c2a4a1da691e9e4b6ac2fdf&#45;&gt;5d373d31bd324154a3d8862dcbb70b87</title>
<path fill="none" stroke="#666666" d="M576.02,-235C576.02,-235 637.88,-235 637.88,-235"/>
<polygon fill="#666666" stroke="#666666" points="637.88,-238.5 647.88,-235 637.88,-231.5 637.88,-238.5"/>
</g>
<!-- f9c98509f4ce4d8e95239a15147fd4cc -->
<g id="node3" class="node">
<title>f9c98509f4ce4d8e95239a15147fd4cc</title>
<image xlink:href="C:\Workspace\code\patching\ec2\.venv\Lib\site-packages\resources/aws/compute\lambda.png" width="100.8px" height="100.8px" preserveAspectRatio="xMinYMin meet" x="822.95" y="-430.4"/>
<text xml:space="preserve" text-anchor="middle" x="873.35" y="-317.45" font-family="Segoe UI" font-size="12.00" fill="#2d3436">PreEC2Inventory</text>
</g>
<!-- 5d373d31bd324154a3d8862dcbb70b87&#45;&gt;f9c98509f4ce4d8e95239a15147fd4cc -->
<g id="edge2" class="edge">
<title>5d373d31bd324154a3d8862dcbb70b87&#45;&gt;f9c98509f4ce4d8e95239a15147fd4cc</title>
<path fill="none" stroke="#666666" d="M749.89,-299.47C806.37,-299.47 890.2,-299.47 890.2,-299.47 890.2,-299.47 890.2,-300.69 890.2,-300.69"/>
<polygon fill="#666666" stroke="#666666" points="886.7,-300.18 890.2,-310.18 893.7,-300.18 886.7,-300.18"/>
</g>
<!-- c936a738738047f8978dcbf9760fce01 -->
<g id="node4" class="node">
<title>c936a738738047f8978dcbf9760fce01</title>
<image xlink:href="C:\Workspace\code\patching\ec2\.venv\Lib\site-packages\resources/aws/compute\lambda.png" width="100.8px" height="100.8px" preserveAspectRatio="xMinYMin meet" x="822.95" y="-790.4"/>
<text xml:space="preserve" text-anchor="middle" x="873.35" y="-677.45" font-family="Segoe UI" font-size="12.00" fill="#2d3436">SendSsmCommand</text>
</g>
<!-- 5d373d31bd324154a3d8862dcbb70b87&#45;&gt;c936a738738047f8978dcbf9760fce01 -->
<g id="edge3" class="edge">
<title>5d373d31bd324154a3d8862dcbb70b87&#45;&gt;c936a738738047f8978dcbf9760fce01</title>
<path fill="none" stroke="#666666" d="M669.2,-317.62C669.2,-445.55 669.2,-677 669.2,-677 669.2,-677 811.63,-677 811.63,-677"/>
<polygon fill="#666666" stroke="#666666" points="811.63,-680.5 821.63,-677 811.63,-673.5 811.63,-680.5"/>
</g>
<!-- ad10f85bf5c744978e99fa857b5b4bbb -->
<g id="node5" class="node">
<title>ad10f85bf5c744978e99fa857b5b4bbb</title>
<image xlink:href="C:\Workspace\code\patching\ec2\.venv\Lib\site-packages\resources/aws/compute\lambda.png" width="100.8px" height="100.8px" preserveAspectRatio="xMinYMin meet" x="822.95" y="-610.4"/>
<text xml:space="preserve" text-anchor="middle" x="873.35" y="-497.45" font-family="Segoe UI" font-size="12.00" fill="#2d3436">PollSsmCommand</text>
</g>
<!-- 5d373d31bd324154a3d8862dcbb70b87&#45;&gt;ad10f85bf5c744978e99fa857b5b4bbb -->
<g id="edge4" class="edge">
<title>5d373d31bd324154a3d8862dcbb70b87&#45;&gt;ad10f85bf5c744978e99fa857b5b4bbb</title>
<path fill="none" stroke="#666666" d="M689.2,-317.54C689.2,-394.34 689.2,-497 689.2,-497 689.2,-497 811.52,-497 811.52,-497"/>
<polygon fill="#666666" stroke="#666666" points="811.52,-500.5 821.52,-497 811.52,-493.5 811.52,-500.5"/>
</g>
<!-- fd8e04be126b42eab456bce4ede16536 -->
<g id="node6" class="node">
<title>fd8e04be126b42eab456bce4ede16536</title>
<image xlink:href="C:\Workspace\code\patching\ec2\.venv\Lib\site-packages\resources/aws/compute\lambda.png" width="100.8px" height="100.8px" preserveAspectRatio="xMinYMin meet" x="822.95" y="-250.4"/>
<text xml:space="preserve" text-anchor="middle" x="873.35" y="-137.45" font-family="Segoe UI" font-size="12.00" fill="#2d3436">PostEC2Verify</text>
</g>
<!-- 5d373d31bd324154a3d8862dcbb70b87&#45;&gt;fd8e04be126b42eab456bce4ede16536 -->
<g id="edge5" class="edge">
<title>5d373d31bd324154a3d8862dcbb70b87&#45;&gt;fd8e04be126b42eab456bce4ede16536</title>
<path fill="none" stroke="#666666" d="M749.82,-210.3C749.82,-210.3 811.68,-210.3 811.68,-210.3"/>
<polygon fill="#666666" stroke="#666666" points="811.68,-213.8 821.68,-210.3 811.68,-206.8 811.68,-213.8"/>
</g>
<!-- 7e428d81e9fa4beca8559f74b00a50ae -->
<g id="node7" class="node">
<title>7e428d81e9fa4beca8559f74b00a50ae</title>
<image xlink:href="C:\Workspace\code\patching\ec2\.venv\Lib\site-packages\resources/aws/integration\simple-notification-service-sns.png" width="100.8px" height="100.8px" preserveAspectRatio="xMinYMin meet" x="1307.88" y="-423.4"/>
<text xml:space="preserve" text-anchor="middle" x="1358.28" y="-310.45" font-family="Segoe UI" font-size="12.00" fill="#2d3436">Notifications</text>
</g>
<!-- 5d373d31bd324154a3d8862dcbb70b87&#45;&gt;7e428d81e9fa4beca8559f74b00a50ae -->
<g id="edge6" class="edge">
<title>5d373d31bd324154a3d8862dcbb70b87&#45;&gt;7e428d81e9fa4beca8559f74b00a50ae</title>
<path fill="none" stroke="#666666" d="M730.2,-317.79C730.2,-381.01 730.2,-457.35 730.2,-457.35 730.2,-457.35 1358.2,-457.35 1358.2,-457.35 1358.2,-457.35 1358.2,-452.6 1358.2,-452.6"/>
<polygon fill="#666666" stroke="#666666" points="1361.7,-452.6 1358.2,-442.6 1354.7,-452.6 1361.7,-452.6"/>
</g>
<!-- d01a372028cf40928363931bce1ec41a -->
<g id="node15" class="node">
<title>d01a372028cf40928363931bce1ec41a</title>
<image xlink:href="C:\Workspace\code\patching\ec2\.venv\Lib\site-packages\resources/aws/management\cloudwatch.png" width="100.8px" height="100.8px" preserveAspectRatio="xMinYMin meet" x="1307.88" y="-603.4"/>
<text xml:space="preserve" text-anchor="middle" x="1358.28" y="-490.45" font-family="Segoe UI" font-size="12.00" fill="#2d3436">Dashboards &amp; Alarms</text>
</g>
<!-- 5d373d31bd324154a3d8862dcbb70b87&#45;&gt;d01a372028cf40928363931bce1ec41a -->
<g id="edge22" class="edge">
<title>5d373d31bd324154a3d8862dcbb70b87&#45;&gt;d01a372028cf40928363931bce1ec41a</title>
<path fill="none" stroke="#666666" d="M709.2,-317.53C709.2,-383.95 709.2,-466.3 709.2,-466.3 709.2,-466.3 1333.2,-466.3 1333.2,-466.3 1333.2,-466.3 1333.2,-473.17 1333.2,-473.17"/>
<polygon fill="#666666" stroke="#666666" points="1329.7,-473.17 1333.2,-483.17 1336.7,-473.17 1329.7,-473.17"/>
</g>
<!-- e9c2099fd5874f78b1f50b071d0f5f17 -->
<g id="node12" class="node">
<title>e9c2099fd5874f78b1f50b071d0f5f17</title>
<image xlink:href="C:\Workspace\code\patching\ec2\.venv\Lib\site-packages\resources/aws/database\dynamodb.png" width="100.8px" height="100.8px" preserveAspectRatio="xMinYMin meet" x="1101.75" y="-617.4"/>
<text xml:space="preserve" text-anchor="middle" x="1152.15" y="-507.3" font-family="Segoe UI" font-size="12.00" fill="#2d3436">Execution State</text>
<text xml:space="preserve" text-anchor="middle" x="1152.15" y="-490.05" font-family="Segoe UI" font-size="12.00" fill="#2d3436">(TTL / PITR)</text>
</g>
<!-- f9c98509f4ce4d8e95239a15147fd4cc&#45;&gt;e9c2099fd5874f78b1f50b071d0f5f17 -->
<g id="edge11" class="edge">
<title>f9c98509f4ce4d8e95239a15147fd4cc&#45;&gt;e9c2099fd5874f78b1f50b071d0f5f17</title>
<path fill="none" stroke="#666666" d="M923.52,-446.07C1003.81,-446.07 1152.2,-446.07 1152.2,-446.07 1152.2,-446.07 1152.2,-472.82 1152.2,-472.82"/>
<polygon fill="#666666" stroke="#666666" points="1148.7,-472.82 1152.2,-482.82 1155.7,-472.82 1148.7,-472.82"/>
</g>
<!-- c1a634f1af334a56bebb1842a9bd2962 -->
<g id="node19" class="node">
<title>c1a634f1af334a56bebb1842a9bd2962</title>
<image xlink:href="C:\Workspace\code\patching\ec2\.venv\Lib\site-packages\resources/aws/security\identity-and-access-management-iam.png" width="100.8px" height="100.8px" preserveAspectRatio="xMinYMin meet" x="1101.75" y="-1440.4"/>
<text xml:space="preserve" text-anchor="middle" x="1152.15" y="-1330.3" font-family="Segoe UI" font-size="12.00" fill="#2d3436">Cross&#45;Account Execute Role</text>
<text xml:space="preserve" text-anchor="middle" x="1152.15" y="-1313.05" font-family="Segoe UI" font-size="12.00" fill="#2d3436">(ExternalId)</text>
</g>
<!-- f9c98509f4ce4d8e95239a15147fd4cc&#45;&gt;c1a634f1af334a56bebb1842a9bd2962 -->
<g id="edge26" class="edge">
<title>f9c98509f4ce4d8e95239a15147fd4cc&#45;&gt;c1a634f1af334a56bebb1842a9bd2962</title>
<path fill="none" stroke="#7f7f7f" stroke-dasharray="5,2" d="M923.45,-354.67C952.42,-354.67 983.2,-354.67 983.2,-354.67 983.2,-354.67 983.2,-1373.44 983.2,-1373.44 983.2,-1373.44 1090.4,-1373.44 1090.4,-1373.44"/>
<polygon fill="#7f7f7f" stroke="#7f7f7f" points="1090.4,-1376.94 1100.4,-1373.44 1090.4,-1369.94 1090.4,-1376.94"/>
<text xml:space="preserve" text-anchor="middle" x="1010.75" y="-1178.15" font-family="Sans-Serif" font-size="13.00" fill="#2d3436">AssumeRole</text>
</g>
<!-- c936a738738047f8978dcbf9760fce01&#45;&gt;e9c2099fd5874f78b1f50b071d0f5f17 -->
<g id="edge12" class="edge">
<title>c936a738738047f8978dcbf9760fce01&#45;&gt;e9c2099fd5874f78b1f50b071d0f5f17</title>
<path fill="none" stroke="#666666" d="M898.2,-671.86C898.2,-653.74 898.2,-639.1 898.2,-639.1 898.2,-639.1 1090.46,-639.1 1090.46,-639.1"/>
<polygon fill="#666666" stroke="#666666" points="1090.46,-642.6 1100.46,-639.1 1090.46,-635.6 1090.46,-642.6"/>
</g>
<!-- e63b3a3fa7fe446d90ed033da86c83a6 -->
<g id="node13" class="node">
<title>e63b3a3fa7fe446d90ed033da86c83a6</title>
<image xlink:href="C:\Workspace\code\patching\ec2\.venv\Lib\site-packages\resources/aws/storage\simple-storage-service-s3.png" width="100.8px" height="100.8px" preserveAspectRatio="xMinYMin meet" x="1101.75" y="-408.4"/>
<text xml:space="preserve" text-anchor="middle" x="1152.15" y="-298.3" font-family="Segoe UI" font-size="12.00" fill="#2d3436">Artifacts &amp; Outputs</text>
<text xml:space="preserve" text-anchor="middle" x="1152.15" y="-281.05" font-family="Segoe UI" font-size="12.00" fill="#2d3436">(SSE&#45;KMS)</text>
</g>
<!-- c936a738738047f8978dcbf9760fce01&#45;&gt;e63b3a3fa7fe446d90ed033da86c83a6 -->
<g id="edge16" class="edge">
<title>c936a738738047f8978dcbf9760fce01&#45;&gt;e63b3a3fa7fe446d90ed033da86c83a6</title>
<path fill="none" stroke="#666666" d="M923.55,-705.8C973.33,-705.8 1042.2,-705.8 1042.2,-705.8 1042.2,-705.8 1042.2,-397.73 1042.2,-397.73 1042.2,-397.73 1090.49,-397.73 1090.49,-397.73"/>
<polygon fill="#666666" stroke="#666666" points="1090.49,-401.23 1100.49,-397.73 1090.49,-394.23 1090.49,-401.23"/>
</g>
<!-- b2db11b1440d494594771e0afac8ee69 -->
<g id="node17" class="node">
<title>b2db11b1440d494594771e0afac8ee69</title>
<image xlink:href="C:\Workspace\code\patching\ec2\.venv\Lib\site-packages\resources/aws/compute\ec2.png" width="100.8px" height="100.8px" preserveAspectRatio="xMinYMin meet" x="1101.75" y="-1217.4"/>
<text xml:space="preserve" text-anchor="middle" x="1152.15" y="-1104.45" font-family="Segoe UI" font-size="12.00" fill="#2d3436">Windows (Tagged)</text>
</g>
<!-- c936a738738047f8978dcbf9760fce01&#45;&gt;b2db11b1440d494594771e0afac8ee69 -->
<g id="edge30" class="edge">
<title>c936a738738047f8978dcbf9760fce01&#45;&gt;b2db11b1440d494594771e0afac8ee69</title>
<path fill="none" stroke="steelblue" d="M923.53,-774.2C999.56,-774.2 1135.2,-774.2 1135.2,-774.2 1135.2,-774.2 1135.2,-1087.51 1135.2,-1087.51"/>
<polygon fill="steelblue" stroke="steelblue" points="1131.7,-1087.51 1135.2,-1097.51 1138.7,-1087.51 1131.7,-1087.51"/>
<text xml:space="preserve" text-anchor="middle" x="1010.75" y="-1243.15" font-family="Sans-Serif" font-size="13.00" fill="#2d3436">RunPatchBaseline</text>
</g>
<!-- 953881be51924cd2b57d7d4569c1551c -->
<g id="node18" class="node">
<title>953881be51924cd2b57d7d4569c1551c</title>
<image xlink:href="C:\Workspace\code\patching\ec2\.venv\Lib\site-packages\resources/aws/compute\ec2.png" width="100.8px" height="100.8px" preserveAspectRatio="xMinYMin meet" x="1307.88" y="-1217.4"/>
<text xml:space="preserve" text-anchor="middle" x="1358.28" y="-1104.45" font-family="Segoe UI" font-size="12.00" fill="#2d3436">Linux (Tagged)</text>
</g>
<!-- c936a738738047f8978dcbf9760fce01&#45;&gt;953881be51924cd2b57d7d4569c1551c -->
<g id="edge31" class="edge">
<title>c936a738738047f8978dcbf9760fce01&#45;&gt;953881be51924cd2b57d7d4569c1551c</title>
<path fill="none" stroke="steelblue" d="M923.42,-740C1044.11,-740 1341.2,-740 1341.2,-740 1341.2,-740 1341.2,-1087.35 1341.2,-1087.35"/>
<polygon fill="steelblue" stroke="steelblue" points="1337.7,-1087.35 1341.2,-1097.35 1344.7,-1087.35 1337.7,-1087.35"/>
<text xml:space="preserve" text-anchor="middle" x="1152.15" y="-1043.15" font-family="Sans-Serif" font-size="13.00" fill="#2d3436">RunPatchBaseline</text>
</g>
<!-- c936a738738047f8978dcbf9760fce01&#45;&gt;c1a634f1af334a56bebb1842a9bd2962 -->
<g id="edge27" class="edge">
<title>c936a738738047f8978dcbf9760fce01&#45;&gt;c1a634f1af334a56bebb1842a9bd2962</title>
<path fill="none" stroke="#7f7f7f" stroke-dasharray="5,2" d="M873.2,-808.36C873.2,-984.42 873.2,-1439.68 873.2,-1439.68 873.2,-1439.68 1090.44,-1439.68 1090.44,-1439.68"/>
<polygon fill="#7f7f7f" stroke="#7f7f7f" points="1090.44,-1443.18 1100.44,-1439.68 1090.44,-1436.18 1090.44,-1443.18"/>
<text xml:space="preserve" text-anchor="middle" x="1010.75" y="-999.15" font-family="Sans-Serif" font-size="13.00" fill="#2d3436">AssumeRole</text>
</g>
<!-- ad10f85bf5c744978e99fa857b5b4bbb&#45;&gt;e9c2099fd5874f78b1f50b071d0f5f17 -->
<g id="edge13" class="edge">
<title>ad10f85bf5c744978e99fa857b5b4bbb&#45;&gt;e9c2099fd5874f78b1f50b071d0f5f17</title>
<path fill="none" stroke="#666666" d="M923.52,-537.2C923.52,-537.2 1090.4,-537.2 1090.4,-537.2"/>
<polygon fill="#666666" stroke="#666666" points="1090.4,-540.7 1100.4,-537.2 1090.4,-533.7 1090.4,-540.7"/>
</g>
<!-- ad10f85bf5c744978e99fa857b5b4bbb&#45;&gt;e63b3a3fa7fe446d90ed033da86c83a6 -->
<g id="edge17" class="edge">
<title>ad10f85bf5c744978e99fa857b5b4bbb&#45;&gt;e63b3a3fa7fe446d90ed033da86c83a6</title>
<path fill="none" stroke="#666666" d="M873.2,-491.99C873.2,-482.14 873.2,-475.25 873.2,-475.25 873.2,-475.25 1127.2,-475.25 1127.2,-475.25 1127.2,-475.25 1127.2,-452.22 1127.2,-452.22"/>
<polygon fill="#666666" stroke="#666666" points="1130.7,-452.22 1127.2,-442.22 1123.7,-452.22 1130.7,-452.22"/>
</g>
<!-- ad10f85bf5c744978e99fa857b5b4bbb&#45;&gt;b2db11b1440d494594771e0afac8ee69 -->
<g id="edge32" class="edge">
<title>ad10f85bf5c744978e99fa857b5b4bbb&#45;&gt;b2db11b1440d494594771e0afac8ee69</title>
<path fill="none" stroke="steelblue" d="M848.2,-639.65C848.2,-639.65 848.2,-664.33 848.2,-664.33 848.2,-664.33 1169.2,-664.33 1169.2,-664.33 1169.2,-664.33 1169.2,-961.25 1169.2,-1098.69"/>
<polygon fill="steelblue" stroke="steelblue" points="851.7,-639.65 848.2,-629.65 844.7,-639.65 851.7,-639.65"/>
<text xml:space="preserve" text-anchor="middle" x="1010.75" y="-1113.15" font-family="Sans-Serif" font-size="13.00" fill="#2d3436">GetResults</text>
</g>
<!-- ad10f85bf5c744978e99fa857b5b4bbb&#45;&gt;953881be51924cd2b57d7d4569c1551c -->
<g id="edge33" class="edge">
<title>ad10f85bf5c744978e99fa857b5b4bbb&#45;&gt;953881be51924cd2b57d7d4569c1551c</title>
<path fill="none" stroke="steelblue" d="M873.2,-639.72C873.2,-639.72 873.2,-657.07 873.2,-657.07 873.2,-657.07 1375.2,-657.07 1375.2,-657.07 1375.2,-657.07 1375.2,-959.81 1375.2,-1098.76"/>
<polygon fill="steelblue" stroke="steelblue" points="876.7,-639.72 873.2,-629.72 869.7,-639.72 876.7,-639.72"/>
<text xml:space="preserve" text-anchor="middle" x="1152.15" y="-940.15" font-family="Sans-Serif" font-size="13.00" fill="#2d3436">GetResults</text>
</g>
<!-- ad10f85bf5c744978e99fa857b5b4bbb&#45;&gt;c1a634f1af334a56bebb1842a9bd2962 -->
<g id="edge28" class="edge">
<title>ad10f85bf5c744978e99fa857b5b4bbb&#45;&gt;c1a634f1af334a56bebb1842a9bd2962</title>
<path fill="none" stroke="#7f7f7f" stroke-dasharray="5,2" d="M923.47,-582.8C939.51,-582.8 953.2,-582.8 953.2,-582.8 953.2,-582.8 953.2,-1406.56 953.2,-1406.56 953.2,-1406.56 1090.43,-1406.56 1090.43,-1406.56"/>
<polygon fill="#7f7f7f" stroke="#7f7f7f" points="1090.43,-1410.06 1100.43,-1406.56 1090.43,-1403.06 1090.43,-1410.06"/>
<text xml:space="preserve" text-anchor="middle" x="1010.75" y="-69.15" font-family="Sans-Serif" font-size="13.00" fill="#2d3436">AssumeRole</text>
</g>
<!-- fd8e04be126b42eab456bce4ede16536&#45;&gt;e9c2099fd5874f78b1f50b071d0f5f17 -->
<g id="edge14" class="edge">
<title>fd8e04be126b42eab456bce4ede16536&#45;&gt;e9c2099fd5874f78b1f50b071d0f5f17</title>
<path fill="none" stroke="#666666" d="M923.53,-177.2C982.44,-177.2 1072.2,-177.2 1072.2,-177.2 1072.2,-177.2 1072.2,-486.67 1072.2,-486.67 1072.2,-486.67 1090.46,-486.67 1090.46,-486.67"/>
<polygon fill="#666666" stroke="#666666" points="1090.46,-490.17 1100.46,-486.67 1090.46,-483.17 1090.46,-490.17"/>
</g>
<!-- fd8e04be126b42eab456bce4ede16536&#45;&gt;e63b3a3fa7fe446d90ed033da86c83a6 -->
<g id="edge18" class="edge">
<title>fd8e04be126b42eab456bce4ede16536&#45;&gt;e63b3a3fa7fe446d90ed033da86c83a6</title>
<path fill="none" stroke="#666666" d="M856.2,-268.38C856.2,-279.43 856.2,-287.33 856.2,-287.33 856.2,-287.33 1090.43,-287.33 1090.43,-287.33"/>
<polygon fill="#666666" stroke="#666666" points="1090.43,-290.83 1100.43,-287.33 1090.43,-283.83 1090.43,-290.83"/>
</g>
<!-- fd8e04be126b42eab456bce4ede16536&#45;&gt;c1a634f1af334a56bebb1842a9bd2962 -->
<g id="edge29" class="edge">
<title>fd8e04be126b42eab456bce4ede16536&#45;&gt;c1a634f1af334a56bebb1842a9bd2962</title>
<path fill="none" stroke="#7f7f7f" stroke-dasharray="5,2" d="M923.44,-222.8C963.57,-222.8 1013.2,-222.8 1013.2,-222.8 1013.2,-222.8 1013.2,-1340.32 1013.2,-1340.32 1013.2,-1340.32 1090.47,-1340.32 1090.47,-1340.32"/>
<polygon fill="#7f7f7f" stroke="#7f7f7f" points="1090.47,-1343.82 1100.47,-1340.32 1090.47,-1336.82 1090.47,-1343.82"/>
<text xml:space="preserve" text-anchor="middle" x="1010.75" y="-4.15" font-family="Sans-Serif" font-size="13.00" fill="#2d3436">AssumeRole</text>
</g>
<!-- c52dd1ecdf8d490db06af4a7c47f436b -->
<g id="node14" class="node">
<title>c52dd1ecdf8d490db06af4a7c47f436b</title>
<image xlink:href="C:\Workspace\code\patching\ec2\.venv\Lib\site-packages\resources/aws/security\key-management-service.png" width="100.8px" height="100.8px" preserveAspectRatio="xMinYMin meet" x="1494.4" y="-423.4"/>
<text xml:space="preserve" text-anchor="middle" x="1544.8" y="-310.45" font-family="Segoe UI" font-size="12.00" fill="#2d3436">KMS Keys</text>
</g>
<!-- 7e428d81e9fa4beca8559f74b00a50ae&#45;&gt;c52dd1ecdf8d490db06af4a7c47f436b -->
<g id="edge21" class="edge">
<title>7e428d81e9fa4beca8559f74b00a50ae&#45;&gt;c52dd1ecdf8d490db06af4a7c47f436b</title>
<path fill="none" stroke="#666666" d="M1408.26,-373C1408.26,-373 1483.16,-373 1483.16,-373"/>
<polygon fill="#666666" stroke="#666666" points="1483.16,-376.5 1493.16,-373 1483.16,-369.5 1483.16,-376.5"/>
</g>
<!-- 4673f288d9014dde9f73c786efd6d32b -->
<g id="node8" class="node">
<title>4673f288d9014dde9f73c786efd6d32b</title>
<image xlink:href="C:\Workspace\code\patching\ec2\.venv\Lib\site-packages\resources/aws/network\api-gateway.png" width="100.8px" height="100.8px" preserveAspectRatio="xMinYMin meet" x="24" y="-516.4"/>
<text xml:space="preserve" text-anchor="middle" x="74.4" y="-403.45" font-family="Segoe UI" font-size="12.00" fill="#2d3436">Approvals API</text>
</g>
<!-- c92605054f8341379f15f1d87473c344 -->
<g id="node9" class="node">
<title>c92605054f8341379f15f1d87473c344</title>
<image xlink:href="C:\Workspace\code\patching\ec2\.venv\Lib\site-packages\resources/aws/compute\lambda.png" width="100.8px" height="100.8px" preserveAspectRatio="xMinYMin meet" x="272.55" y="-516.4"/>
<text xml:space="preserve" text-anchor="middle" x="322.95" y="-403.45" font-family="Segoe UI" font-size="12.00" fill="#2d3436">ApprovalAuthorizer</text>
</g>
<!-- 4673f288d9014dde9f73c786efd6d32b&#45;&gt;c92605054f8341379f15f1d87473c344 -->
<g id="edge7" class="edge">
<title>4673f288d9014dde9f73c786efd6d32b&#45;&gt;c92605054f8341379f15f1d87473c344</title>
<path fill="none" stroke="#666666" d="M124.7,-466C124.7,-466 261.21,-466 261.21,-466"/>
<polygon fill="#666666" stroke="#666666" points="261.21,-469.5 271.21,-466 261.21,-462.5 261.21,-469.5"/>
<text xml:space="preserve" text-anchor="middle" x="198.68" y="-470.15" font-family="Sans-Serif" font-size="13.00" fill="#2d3436">AuthN/AuthZ</text>
</g>
<!-- 08536525e243472bbe464902ec2c7a26 -->
<g id="node10" class="node">
<title>08536525e243472bbe464902ec2c7a26</title>
<image xlink:href="C:\Workspace\code\patching\ec2\.venv\Lib\site-packages\resources/aws/compute\lambda.png" width="100.8px" height="100.8px" preserveAspectRatio="xMinYMin meet" x="475.35" y="-484.4"/>
<text xml:space="preserve" text-anchor="middle" x="525.75" y="-371.45" font-family="Segoe UI" font-size="12.00" fill="#2d3436">ApprovalCallback</text>
</g>
<!-- c92605054f8341379f15f1d87473c344&#45;&gt;08536525e243472bbe464902ec2c7a26 -->
<g id="edge8" class="edge">
<title>c92605054f8341379f15f1d87473c344&#45;&gt;08536525e243472bbe464902ec2c7a26</title>
<path fill="none" stroke="darkgreen" stroke-width="2" d="M373.34,-450C373.34,-450 462.59,-450 462.59,-450"/>
<polygon fill="darkgreen" stroke="darkgreen" stroke-width="2" points="462.59,-453.5 472.59,-450 462.59,-446.5 462.59,-453.5"/>
<text xml:space="preserve" text-anchor="middle" x="424.35" y="-454.15" font-family="Sans-Serif" font-size="13.00" fill="#2d3436">Allow</text>
</g>
<!-- 5e35bcba60764ccbb042bddd44753467 -->
<g id="node11" class="node">
<title>5e35bcba60764ccbb042bddd44753467</title>
<image xlink:href="C:\Workspace\code\patching\ec2\.venv\Lib\site-packages\resources/aws/compute\lambda.png" width="100.8px" height="100.8px" preserveAspectRatio="xMinYMin meet" x="475.35" y="-664.4"/>
<text xml:space="preserve" text-anchor="middle" x="525.75" y="-551.45" font-family="Segoe UI" font-size="12.00" fill="#2d3436">Rejected</text>
</g>
<!-- c92605054f8341379f15f1d87473c344&#45;&gt;5e35bcba60764ccbb042bddd44753467 -->
<g id="edge9" class="edge">
<title>c92605054f8341379f15f1d87473c344&#45;&gt;5e35bcba60764ccbb042bddd44753467</title>
<path fill="none" stroke="red" stroke-dasharray="5,2" d="M373.19,-518.4C433.38,-518.4 526.2,-518.4 526.2,-518.4 526.2,-518.4 526.2,-534.28 526.2,-534.28"/>
<polygon fill="red" stroke="red" points="522.7,-534.28 526.2,-544.28 529.7,-534.28 522.7,-534.28"/>
<text xml:space="preserve" text-anchor="middle" x="424.35" y="-576.15" font-family="Sans-Serif" font-size="13.00" fill="#2d3436">Deny</text>
</g>
<!-- 08536525e243472bbe464902ec2c7a26&#45;&gt;5d373d31bd324154a3d8862dcbb70b87 -->
<g id="edge10" class="edge">
<title>08536525e243472bbe464902ec2c7a26&#45;&gt;5d373d31bd324154a3d8862dcbb70b87</title>
<path fill="none" stroke="#666666" d="M526.2,-365.8C526.2,-337.26 526.2,-310.6 526.2,-310.6 526.2,-310.6 637.9,-310.6 637.9,-310.6"/>
<polygon fill="#666666" stroke="#666666" points="637.9,-314.1 647.9,-310.6 637.9,-307.1 637.9,-314.1"/>
</g>
<!-- 08536525e243472bbe464902ec2c7a26&#45;&gt;e9c2099fd5874f78b1f50b071d0f5f17 -->
<g id="edge15" class="edge">
<title>08536525e243472bbe464902ec2c7a26&#45;&gt;e9c2099fd5874f78b1f50b071d0f5f17</title>
<path fill="none" stroke="#666666" d="M575.95,-489.13C575.95,-489.13 1090.63,-489.13 1090.63,-489.13"/>
<polygon fill="#666666" stroke="#666666" points="1090.63,-492.63 1100.63,-489.13 1090.63,-485.63 1090.63,-492.63"/>
</g>
<!-- e9c2099fd5874f78b1f50b071d0f5f17&#45;&gt;c52dd1ecdf8d490db06af4a7c47f436b -->
<g id="edge19" class="edge">
<title>e9c2099fd5874f78b1f50b071d0f5f17&#45;&gt;c52dd1ecdf8d490db06af4a7c47f436b</title>
<path fill="none" stroke="#666666" d="M1202.33,-635.6C1308.29,-635.6 1545.2,-635.6 1545.2,-635.6 1545.2,-635.6 1545.2,-452.82 1545.2,-452.82"/>
<polygon fill="#666666" stroke="#666666" points="1548.7,-452.82 1545.2,-442.82 1541.7,-452.82 1548.7,-452.82"/>
</g>
<!-- e9c2099fd5874f78b1f50b071d0f5f17&#45;&gt;d01a372028cf40928363931bce1ec41a -->
<g id="edge23" class="edge">
<title>e9c2099fd5874f78b1f50b071d0f5f17&#45;&gt;d01a372028cf40928363931bce1ec41a</title>
<path fill="none" stroke="#666666" d="M1202.31,-553C1202.31,-553 1296.38,-553 1296.38,-553"/>
<polygon fill="#666666" stroke="#666666" points="1296.38,-556.5 1306.38,-553 1296.38,-549.5 1296.38,-556.5"/>
</g>
<!-- e63b3a3fa7fe446d90ed033da86c83a6&#45;&gt;c52dd1ecdf8d490db06af4a7c47f436b -->
<g id="edge20" class="edge">
<title>e63b3a3fa7fe446d90ed033da86c83a6&#45;&gt;c52dd1ecdf8d490db06af4a7c47f436b</title>
<path fill="none" stroke="#666666" d="M1202.33,-289.9C1308.29,-289.9 1545.2,-289.9 1545.2,-289.9 1545.2,-289.9 1545.2,-293.24 1545.2,-293.24"/>
<polygon fill="#666666" stroke="#666666" points="1541.7,-293.24 1545.2,-303.24 1548.7,-293.24 1541.7,-293.24"/>
</g>
<!-- e63b3a3fa7fe446d90ed033da86c83a6&#45;&gt;d01a372028cf40928363931bce1ec41a -->
<g id="edge24" class="edge">
<title>e63b3a3fa7fe446d90ed033da86c83a6&#45;&gt;d01a372028cf40928363931bce1ec41a</title>
<path fill="none" stroke="#666666" d="M1177.2,-440.48C1177.2,-442.56 1177.2,-443.73 1177.2,-443.73 1177.2,-443.73 1383.2,-443.73 1383.2,-443.73 1383.2,-443.73 1383.2,-473.22 1383.2,-473.22"/>
<polygon fill="#666666" stroke="#666666" points="1379.7,-473.22 1383.2,-483.22 1386.7,-473.22 1379.7,-473.22"/>
</g>
<!-- a66adb03652e4cce8ae9a29400601ad8 -->
<g id="node16" class="node">
<title>a66adb03652e4cce8ae9a29400601ad8</title>
<image xlink:href="C:\Workspace\code\patching\ec2\.venv\Lib\site-packages\resources/aws/management\cloudformation.png" width="100.8px" height="100.8px" preserveAspectRatio="xMinYMin meet" x="24" y="-848.4"/>
<text xml:space="preserve" text-anchor="middle" x="74.4" y="-735.45" font-family="Segoe UI" font-size="12.00" fill="#2d3436">CFN&#45;Only Deployments</text>
</g>
<!-- b2db11b1440d494594771e0afac8ee69&#45;&gt;953881be51924cd2b57d7d4569c1551c -->
</g>
</svg>
