<?xml version="1.0" encoding="UTF-8" standalone="no"?>
<!DOCTYPE svg PUBLIC "-//W3C//DTD SVG 1.1//EN"
 "http://www.w3.org/Graphics/SVG/1.1/DTD/svg11.dtd">
<!-- Generated by graphviz version 13.1.2 (20250808.2320)
 -->
<!-- Title: EC2 Patching Orchestrator (Simplified Hub&#45;and&#45;Spoke) Pages: 1 -->
<svg width="1582pt" height="2588pt"
 viewBox="0.00 0.00 1582.00 2588.00" xmlns="http://www.w3.org/2000/svg" xmlns:xlink="http://www.w3.org/1999/xlink">
<g id="graph0" class="graph" transform="scale(1 1) rotate(0) translate(36 2551.75)">
<title>EC2 Patching Orchestrator (Simplified Hub&#45;and&#45;Spoke)</title>
<polygon fill="white" stroke="none" points="-36,36 -36,-2551.75 1545.8,-2551.75 1545.8,36 -36,36"/>
<text xml:space="preserve" text-anchor="middle" x="754.9" y="-2492.75" font-family="Sans-Serif" font-size="20.00" fill="#2d3436">EC2 Patching Orchestrator (Simplified Hub&#45;and&#45;Spoke)</text>
<g id="clust1" class="cluster">
<title>cluster_Hub Account (Simplified Control Plane)</title>
<path fill="#e5f5fd" stroke="#aeb6be" d="M20,-60C20,-60 1489.8,-60 1489.8,-60 1495.8,-60 1501.8,-66 1501.8,-72 1501.8,-72 1501.8,-1808 1501.8,-1808 1501.8,-1814 1495.8,-1820 1489.8,-1820 1489.8,-1820 20,-1820 20,-1820 14,-1820 8,-1814 8,-1808 8,-1808 8,-72 8,-72 8,-66 14,-60 20,-60"/>
<text xml:space="preserve" text-anchor="middle" x="119.5" y="-1804.6" font-family="Sans-Serif" font-size="12.00" fill="#2d3436">Hub Account (Simplified Control Plane)</text>
</g>
<g id="clust2" class="cluster">
<title>cluster_Orchestration</title>
<path fill="#ebf3e7" stroke="#aeb6be" d="M28,-964C28,-964 294.6,-964 294.6,-964 300.6,-964 306.6,-970 306.6,-976 306.6,-976 306.6,-1158 306.6,-1158 306.6,-1164 300.6,-1170 294.6,-1170 294.6,-1170 28,-1170 28,-1170 22,-1170 16,-1164 16,-1158 16,-1158 16,-976 16,-976 16,-970 22,-964 28,-964"/>
<text xml:space="preserve" text-anchor="middle" x="59.25" y="-1154.6" font-family="Sans-Serif" font-size="12.00" fill="#2d3436">Orchestration</text>
</g>
<g id="clust3" class="cluster">
<title>cluster_Core Lambdas (4 Functions)</title>
<path fill="#ebf3e7" stroke="#aeb6be" d="M383.6,-979C383.6,-979 524.1,-979 524.1,-979 530.1,-979 536.1,-985 536.1,-991 536.1,-991 536.1,-1683 536.1,-1683 536.1,-1689 530.1,-1695 524.1,-1695 524.1,-1695 383.6,-1695 383.6,-1695 377.6,-1695 371.6,-1689 371.6,-1683 371.6,-1683 371.6,-991 371.6,-991 371.6,-985 377.6,-979 383.6,-979"/>
<text xml:space="preserve" text-anchor="middle" x="453.85" y="-1679.6" font-family="Sans-Serif" font-size="12.00" fill="#2d3436">Core Lambdas (4 Functions)</text>
</g>
<g id="clust4" class="cluster">
<title>cluster_Unified Security</title>
<path fill="#ebf3e7" stroke="#aeb6be" d="M201.8,-1178C201.8,-1178 294.6,-1178 294.6,-1178 300.6,-1178 306.6,-1184 306.6,-1190 306.6,-1190 306.6,-1372 306.6,-1372 306.6,-1378 300.6,-1384 294.6,-1384 294.6,-1384 201.8,-1384 201.8,-1384 195.8,-1384 189.8,-1378 189.8,-1372 189.8,-1372 189.8,-1190 189.8,-1190 189.8,-1184 195.8,-1178 201.8,-1178"/>
<text xml:space="preserve" text-anchor="middle" x="239.05" y="-1368.6" font-family="Sans-Serif" font-size="12.00" fill="#2d3436">Unified Security</text>
</g>
<g id="clust5" class="cluster">
<title>cluster_Data &amp; Storage</title>
<path fill="#ebf3e7" stroke="#aeb6be" d="M739.55,-1270C739.55,-1270 832.35,-1270 832.35,-1270 838.35,-1270 844.35,-1276 844.35,-1282 844.35,-1282 844.35,-1673 844.35,-1673 844.35,-1679 838.35,-1685 832.35,-1685 832.35,-1685 739.55,-1685 739.55,-1685 733.55,-1685 727.55,-1679 727.55,-1673 727.55,-1673 727.55,-1282 727.55,-1282 727.55,-1276 733.55,-1270 739.55,-1270"/>
<text xml:space="preserve" text-anchor="middle" x="775.68" y="-1669.6" font-family="Sans-Serif" font-size="12.00" fill="#2d3436">Data &amp; Storage</text>
</g>
<g id="clust6" class="cluster">
<title>cluster_Observability</title>
<path fill="#ebf3e7" stroke="#aeb6be" d="M1006.15,-210C1006.15,-210 1098.95,-210 1098.95,-210 1104.95,-210 1110.95,-216 1110.95,-222 1110.95,-222 1110.95,-374 1110.95,-374 1110.95,-380 1104.95,-386 1098.95,-386 1098.95,-386 1006.15,-386 1006.15,-386 1000.15,-386 994.15,-380 994.15,-374 994.15,-374 994.15,-222 994.15,-222 994.15,-216 1000.15,-210 1006.15,-210"/>
<text xml:space="preserve" text-anchor="middle" x="1036.28" y="-370.6" font-family="Sans-Serif" font-size="12.00" fill="#2d3436">Observability</text>
</g>
<g id="clust7" class="cluster">
<title>cluster_Notifications</title>
<path fill="#ebf3e7" stroke="#aeb6be" d="M1215.2,-195C1215.2,-195 1308,-195 1308,-195 1314,-195 1320,-201 1320,-207 1320,-207 1320,-389 1320,-389 1320,-395 1314,-401 1308,-401 1308,-401 1215.2,-401 1215.2,-401 1209.2,-401 1203.2,-395 1203.2,-389 1203.2,-389 1203.2,-207 1203.2,-207 1203.2,-201 1209.2,-195 1215.2,-195"/>
<text xml:space="preserve" text-anchor="middle" x="1243.83" y="-385.6" font-family="Sans-Serif" font-size="12.00" fill="#2d3436">Notifications</text>
</g>
<g id="clust8" class="cluster">
<title>cluster_Security &amp; Keys</title>
<path fill="#ebf3e7" stroke="#aeb6be" d="M1389,-83C1389,-83 1481.8,-83 1481.8,-83 1487.8,-83 1493.8,-89 1493.8,-95 1493.8,-95 1493.8,-247 1493.8,-247 1493.8,-253 1487.8,-259 1481.8,-259 1481.8,-259 1389,-259 1389,-259 1383,-259 1377,-253 1377,-247 1377,-247 1377,-95 1377,-95 1377,-89 1383,-83 1389,-83"/>
<text xml:space="preserve" text-anchor="middle" x="1425.88" y="-243.6" font-family="Sans-Serif" font-size="12.00" fill="#2d3436">Security &amp; Keys</text>
</g>
<g id="clust9" class="cluster">
<title>cluster_Deployment</title>
<path fill="#ebf3e7" stroke="#aeb6be" d="M28,-1407C28,-1407 120.8,-1407 120.8,-1407 126.8,-1407 132.8,-1413 132.8,-1419 132.8,-1419 132.8,-1571 132.8,-1571 132.8,-1577 126.8,-1583 120.8,-1583 120.8,-1583 28,-1583 28,-1583 22,-1583 16,-1577 16,-1571 16,-1571 16,-1419 16,-1419 16,-1413 22,-1407 28,-1407"/>
<text xml:space="preserve" text-anchor="middle" x="55.5" y="-1567.6" font-family="Sans-Serif" font-size="12.00" fill="#2d3436">Deployment</text>
</g>
<g id="clust10" class="cluster">
<title>cluster_Custom SSM Documents (Optional)</title>
<path fill="#ebf3e7" stroke="#aeb6be" d="M698.33,-142C698.33,-142 875.58,-142 875.58,-142 881.58,-142 887.58,-148 887.58,-154 887.58,-154 887.58,-1250 887.58,-1250 887.58,-1256 881.58,-1262 875.58,-1262 875.58,-1262 698.33,-1262 698.33,-1262 692.33,-1262 686.33,-1256 686.33,-1250 686.33,-1250 686.33,-154 686.33,-154 686.33,-148 692.33,-142 698.33,-142"/>
<text xml:space="preserve" text-anchor="middle" x="786.95" y="-1246.6" font-family="Sans-Serif" font-size="12.00" fill="#2d3436">Custom SSM Documents (Optional)</text>
</g>
<g id="clust11" class="cluster">
<title>cluster_Windows Documents</title>
<path fill="#ece8f6" stroke="#aeb6be" d="M735.33,-694C735.33,-694 837.58,-694 837.58,-694 843.58,-694 849.58,-700 849.58,-706 849.58,-706 849.58,-1218 849.58,-1218 849.58,-1224 843.58,-1230 837.58,-1230 837.58,-1230 735.33,-1230 735.33,-1230 729.33,-1230 723.33,-1224 723.33,-1218 723.33,-1218 723.33,-706 723.33,-706 723.33,-700 729.33,-694 735.33,-694"/>
<text xml:space="preserve" text-anchor="middle" x="786.45" y="-1214.6" font-family="Sans-Serif" font-size="12.00" fill="#2d3436">Windows Documents</text>
</g>
<g id="clust12" class="cluster">
<title>cluster_Linux Documents</title>
<path fill="#ece8f6" stroke="#aeb6be" d="M739.55,-150C739.55,-150 832.35,-150 832.35,-150 838.35,-150 844.35,-156 844.35,-162 844.35,-162 844.35,-674 844.35,-674 844.35,-680 838.35,-686 832.35,-686 832.35,-686 739.55,-686 739.55,-686 733.55,-686 727.55,-680 727.55,-674 727.55,-674 727.55,-162 727.55,-162 727.55,-156 733.55,-150 739.55,-150"/>
<text xml:space="preserve" text-anchor="middle" x="780.93" y="-670.6" font-family="Sans-Serif" font-size="12.00" fill="#2d3436">Linux Documents</text>
</g>
<g id="clust13" class="cluster">
<title>cluster_Spoke Accounts (Targets)</title>
<path fill="#e5f5fd" stroke="#aeb6be" d="M715.55,-2005C715.55,-2005 1122.95,-2005 1122.95,-2005 1128.95,-2005 1134.95,-2011 1134.95,-2017 1134.95,-2017 1134.95,-2463 1134.95,-2463 1134.95,-2469 1128.95,-2475 1122.95,-2475 1122.95,-2475 715.55,-2475 715.55,-2475 709.55,-2475 703.55,-2469 703.55,-2463 703.55,-2463 703.55,-2017 703.55,-2017 703.55,-2011 709.55,-2005 715.55,-2005"/>
<text xml:space="preserve" text-anchor="middle" x="779.05" y="-2459.6" font-family="Sans-Serif" font-size="12.00" fill="#2d3436">Spoke Accounts (Targets)</text>
</g>
<g id="clust14" class="cluster">
<title>cluster_Spoke 1..N</title>
<path fill="#ebf3e7" stroke="#aeb6be" d="M723.55,-2013C723.55,-2013 1114.95,-2013 1114.95,-2013 1120.95,-2013 1126.95,-2019 1126.95,-2025 1126.95,-2025 1126.95,-2431 1126.95,-2431 1126.95,-2437 1120.95,-2443 1114.95,-2443 1114.95,-2443 723.55,-2443 723.55,-2443 717.55,-2443 711.55,-2437 711.55,-2431 711.55,-2431 711.55,-2025 711.55,-2025 711.55,-2019 717.55,-2013 723.55,-2013"/>
<text xml:space="preserve" text-anchor="middle" x="748.8" y="-2427.6" font-family="Sans-Serif" font-size="12.00" fill="#2d3436">Spoke 1..N</text>
</g>
<g id="clust15" class="cluster">
<title>cluster_Regions</title>
<path fill="#ece8f6" stroke="#aeb6be" d="M731.55,-2021C731.55,-2021 1106.95,-2021 1106.95,-2021 1112.95,-2021 1118.95,-2027 1118.95,-2033 1118.95,-2033 1118.95,-2225 1118.95,-2225 1118.95,-2231 1112.95,-2237 1106.95,-2237 1106.95,-2237 731.55,-2237 731.55,-2237 725.55,-2237 719.55,-2231 719.55,-2225 719.55,-2225 719.55,-2033 719.55,-2033 719.55,-2027 725.55,-2021 731.55,-2021"/>
<text xml:space="preserve" text-anchor="middle" x="748.55" y="-2221.6" font-family="Sans-Serif" font-size="12.00" fill="#2d3436">Regions</text>
</g>
<g id="clust16" class="cluster">
<title>cluster_Region A..Z</title>
<path fill="#fdf7e3" stroke="#aeb6be" d="M739.55,-2029C739.55,-2029 1098.95,-2029 1098.95,-2029 1104.95,-2029 1110.95,-2035 1110.95,-2041 1110.95,-2041 1110.95,-2193 1110.95,-2193 1110.95,-2199 1104.95,-2205 1098.95,-2205 1098.95,-2205 739.55,-2205 739.55,-2205 733.55,-2205 727.55,-2199 727.55,-2193 727.55,-2193 727.55,-2041 727.55,-2041 727.55,-2035 733.55,-2029 739.55,-2029"/>
<text xml:space="preserve" text-anchor="middle" x="766.68" y="-2189.6" font-family="Sans-Serif" font-size="12.00" fill="#2d3436">Region A..Z</text>
</g>
<!-- a68f25d950b14d73bf3bd439a28c05d7 -->
<g id="node1" class="node">
<title>a68f25d950b14d73bf3bd439a28c05d7</title>
<image xlink:href="C:\Users\deepa\AppData\Roaming\Python\Python313\site-packages\resources/aws/integration\eventbridge.png" width="100.8px" height="100.8px" preserveAspectRatio="xMinYMin meet" x="24" y="-1105.4"/>
<text xml:space="preserve" text-anchor="middle" x="74.4" y="-995.3" font-family="Segoe UI" font-size="12.00" fill="#2d3436">EventBridge</text>
<text xml:space="preserve" text-anchor="middle" x="74.4" y="-978.05" font-family="Segoe UI" font-size="12.00" fill="#2d3436">Scheduled Trigger</text>
</g>
<!-- 9c51f8b447ec43cdaa2bf30c9eff4885 -->
<g id="node2" class="node">
<title>9c51f8b447ec43cdaa2bf30c9eff4885</title>
<image xlink:href="C:\Users\deepa\AppData\Roaming\Python\Python313\site-packages\resources/aws/integration\step-functions.png" width="100.8px" height="100.8px" preserveAspectRatio="xMinYMin meet" x="197.8" y="-1105.4"/>
<text xml:space="preserve" text-anchor="middle" x="248.2" y="-995.3" font-family="Segoe UI" font-size="12.00" fill="#2d3436">State Machine</text>
<text xml:space="preserve" text-anchor="middle" x="248.2" y="-978.05" font-family="Segoe UI" font-size="12.00" fill="#2d3436">Direct Execution</text>
</g>
<!-- a68f25d950b14d73bf3bd439a28c05d7&#45;&gt;9c51f8b447ec43cdaa2bf30c9eff4885 -->
<g id="edge1" class="edge">
<title>a68f25d950b14d73bf3bd439a28c05d7&#45;&gt;9c51f8b447ec43cdaa2bf30c9eff4885</title>
<path fill="none" stroke="#666666" d="M124.67,-1055C124.67,-1055 186.53,-1055 186.53,-1055"/>
<polygon fill="#666666" stroke="#666666" points="186.53,-1058.5 196.53,-1055 186.53,-1051.5 186.53,-1058.5"/>
</g>
<!-- 7f8488d3dc164b3099ccfb5e5d3ed3fa -->
<g id="node3" class="node">
<title>7f8488d3dc164b3099ccfb5e5d3ed3fa</title>
<image xlink:href="C:\Users\deepa\AppData\Roaming\Python\Python313\site-packages\resources/aws/compute\lambda.png" width="100.8px" height="100.8px" preserveAspectRatio="xMinYMin meet" x="402.95" y="-1285.4"/>
<text xml:space="preserve" text-anchor="middle" x="453.35" y="-1172.45" font-family="Segoe UI" font-size="12.00" fill="#2d3436">PreEC2Inventory</text>
</g>
<!-- 9c51f8b447ec43cdaa2bf30c9eff4885&#45;&gt;7f8488d3dc164b3099ccfb5e5d3ed3fa -->
<g id="edge2" class="edge">
<title>9c51f8b447ec43cdaa2bf30c9eff4885&#45;&gt;7f8488d3dc164b3099ccfb5e5d3ed3fa</title>
<path fill="none" stroke="#666666" d="M298.48,-1134.2C363.87,-1134.2 469.8,-1134.2 469.8,-1134.2 469.8,-1134.2 469.8,-1155.14 469.8,-1155.14"/>
<polygon fill="#666666" stroke="#666666" points="466.3,-1155.14 469.8,-1165.14 473.3,-1155.14 466.3,-1155.14"/>
</g>
<!-- 9651f7e3ad14441eb2cb5c8f1523087b -->
<g id="node4" class="node">
<title>9651f7e3ad14441eb2cb5c8f1523087b</title>
<image xlink:href="C:\Users\deepa\AppData\Roaming\Python\Python313\site-packages\resources/aws/compute\lambda.png" width="100.8px" height="100.8px" preserveAspectRatio="xMinYMin meet" x="402.95" y="-1105.4"/>
<text xml:space="preserve" text-anchor="middle" x="453.35" y="-992.45" font-family="Segoe UI" font-size="12.00" fill="#2d3436">SendSsmCommand</text>
</g>
<!-- 9c51f8b447ec43cdaa2bf30c9eff4885&#45;&gt;9651f7e3ad14441eb2cb5c8f1523087b -->
<g id="edge3" class="edge">
<title>9c51f8b447ec43cdaa2bf30c9eff4885&#45;&gt;9651f7e3ad14441eb2cb5c8f1523087b</title>
<path fill="none" stroke="#666666" d="M298.39,-1055C298.39,-1055 391.46,-1055 391.46,-1055"/>
<polygon fill="#666666" stroke="#666666" points="391.46,-1058.5 401.46,-1055 391.46,-1051.5 391.46,-1058.5"/>
</g>
<!-- e030b5dc028a4910827778a0e70a1e02 -->
<g id="node5" class="node">
<title>e030b5dc028a4910827778a0e70a1e02</title>
<image xlink:href="C:\Users\deepa\AppData\Roaming\Python\Python313\site-packages\resources/aws/compute\lambda.png" width="100.8px" height="100.8px" preserveAspectRatio="xMinYMin meet" x="402.95" y="-1645.4"/>
<text xml:space="preserve" text-anchor="middle" x="453.35" y="-1532.45" font-family="Segoe UI" font-size="12.00" fill="#2d3436">PollSsmCommand</text>
</g>
<!-- 9c51f8b447ec43cdaa2bf30c9eff4885&#45;&gt;e030b5dc028a4910827778a0e70a1e02 -->
<g id="edge4" class="edge">
<title>9c51f8b447ec43cdaa2bf30c9eff4885&#45;&gt;e030b5dc028a4910827778a0e70a1e02</title>
<path fill="none" stroke="#666666" d="M298.49,-1130.6C317.12,-1130.6 333.8,-1130.6 333.8,-1130.6 333.8,-1130.6 333.8,-1534.87 333.8,-1534.87 333.8,-1534.87 391.48,-1534.87 391.48,-1534.87"/>
<polygon fill="#666666" stroke="#666666" points="391.48,-1538.37 401.48,-1534.87 391.48,-1531.37 391.48,-1538.37"/>
</g>
<!-- 142ed034ee6345eea80525c07d8b3f64 -->
<g id="node6" class="node">
<title>142ed034ee6345eea80525c07d8b3f64</title>
<image xlink:href="C:\Users\deepa\AppData\Roaming\Python\Python313\site-packages\resources/aws/compute\lambda.png" width="100.8px" height="100.8px" preserveAspectRatio="xMinYMin meet" x="402.95" y="-1465.4"/>
<text xml:space="preserve" text-anchor="middle" x="453.35" y="-1352.45" font-family="Segoe UI" font-size="12.00" fill="#2d3436">PostEC2Verify</text>
</g>
<!-- 9c51f8b447ec43cdaa2bf30c9eff4885&#45;&gt;142ed034ee6345eea80525c07d8b3f64 -->
<g id="edge5" class="edge">
<title>9c51f8b447ec43cdaa2bf30c9eff4885&#45;&gt;142ed034ee6345eea80525c07d8b3f64</title>
<path fill="none" stroke="#666666" d="M298.57,-1127C331.26,-1127 367.8,-1127 367.8,-1127 367.8,-1127 367.8,-1383.2 367.8,-1383.2 367.8,-1383.2 391.58,-1383.2 391.58,-1383.2"/>
<polygon fill="#666666" stroke="#666666" points="391.58,-1386.7 401.58,-1383.2 391.58,-1379.7 391.58,-1386.7"/>
</g>
<!-- f3a7c196bcee4d10a57825e14cec3f2c -->
<g id="node12" class="node">
<title>f3a7c196bcee4d10a57825e14cec3f2c</title>
<image xlink:href="C:\Users\deepa\AppData\Roaming\Python\Python313\site-packages\resources/aws/management\cloudwatch.png" width="100.8px" height="100.8px" preserveAspectRatio="xMinYMin meet" x="1002.15" y="-336.4"/>
<text xml:space="preserve" text-anchor="middle" x="1052.55" y="-223.45" font-family="Segoe UI" font-size="12.00" fill="#2d3436">Dashboards &amp; Alarms</text>
</g>
<!-- 9c51f8b447ec43cdaa2bf30c9eff4885&#45;&gt;f3a7c196bcee4d10a57825e14cec3f2c -->
<g id="edge20" class="edge">
<title>9c51f8b447ec43cdaa2bf30c9eff4885&#45;&gt;f3a7c196bcee4d10a57825e14cec3f2c</title>
<path fill="none" stroke="#666666" d="M247.8,-972.38C247.8,-779.54 247.8,-316 247.8,-316 247.8,-316 990.7,-316 990.7,-316"/>
<polygon fill="#666666" stroke="#666666" points="990.7,-319.5 1000.7,-316 990.7,-312.5 990.7,-319.5"/>
</g>
<!-- 05a580ded89c4d9c91f330e304814bbf -->
<g id="node8" class="node">
<title>05a580ded89c4d9c91f330e304814bbf</title>
<image xlink:href="C:\Users\deepa\AppData\Roaming\Python\Python313\site-packages\resources/aws/database\dynamodb.png" width="100.8px" height="100.8px" preserveAspectRatio="xMinYMin meet" x="735.55" y="-1411.4"/>
<text xml:space="preserve" text-anchor="middle" x="785.95" y="-1301.3" font-family="Segoe UI" font-size="12.00" fill="#2d3436">Execution State</text>
<text xml:space="preserve" text-anchor="middle" x="785.95" y="-1284.05" font-family="Segoe UI" font-size="12.00" fill="#2d3436">(TTL / PITR)</text>
</g>
<!-- 7f8488d3dc164b3099ccfb5e5d3ed3fa&#45;&gt;05a580ded89c4d9c91f330e304814bbf -->
<g id="edge7" class="edge">
<title>7f8488d3dc164b3099ccfb5e5d3ed3fa&#45;&gt;05a580ded89c4d9c91f330e304814bbf</title>
<path fill="none" stroke="#666666" d="M503.5,-1290.8C503.5,-1290.8 724.15,-1290.8 724.15,-1290.8"/>
<polygon fill="#666666" stroke="#666666" points="724.15,-1294.3 734.15,-1290.8 724.15,-1287.3 724.15,-1294.3"/>
</g>
<!-- 99503b60fbc74e66943826c8da0b4326 -->
<g id="node11" class="node">
<title>99503b60fbc74e66943826c8da0b4326</title>
<image xlink:href="C:\Users\deepa\AppData\Roaming\Python\Python313\site-packages\resources/aws/integration\simple-notification-service-sns.png" width="100.8px" height="100.8px" preserveAspectRatio="xMinYMin meet" x="1211.2" y="-336.4"/>
<text xml:space="preserve" text-anchor="middle" x="1261.6" y="-226.3" font-family="Segoe UI" font-size="12.00" fill="#2d3436">SNS Topic</text>
<text xml:space="preserve" text-anchor="middle" x="1261.6" y="-209.05" font-family="Segoe UI" font-size="12.00" fill="#2d3436">(Optional Email)</text>
</g>
<!-- 7f8488d3dc164b3099ccfb5e5d3ed3fa&#45;&gt;99503b60fbc74e66943826c8da0b4326 -->
<g id="edge24" class="edge">
<title>7f8488d3dc164b3099ccfb5e5d3ed3fa&#45;&gt;99503b60fbc74e66943826c8da0b4326</title>
<path fill="none" stroke="orange" stroke-dasharray="1,5" d="M503.6,-1238.3C678.76,-1238.3 1251.8,-1238.3 1251.8,-1238.3 1251.8,-1238.3 1251.8,-379.94 1251.8,-379.94"/>
<polygon fill="orange" stroke="orange" points="1255.3,-379.94 1251.8,-369.94 1248.3,-379.94 1255.3,-379.94"/>
<text xml:space="preserve" text-anchor="middle" x="947.78" y="-1646.15" font-family="Sans-Serif" font-size="13.00" fill="#2d3436">Status</text>
</g>
<!-- b631f0f509944f04890f3eed4b0654b6 -->
<g id="node22" class="node">
<title>b631f0f509944f04890f3eed4b0654b6</title>
<image xlink:href="C:\Users\deepa\AppData\Roaming\Python\Python313\site-packages\resources/aws/security\identity-and-access-management-iam.png" width="100.8px" height="100.8px" preserveAspectRatio="xMinYMin meet" x="735.55" y="-2378.4"/>
<text xml:space="preserve" text-anchor="middle" x="785.95" y="-2268.3" font-family="Segoe UI" font-size="12.00" fill="#2d3436">Cross&#45;Account Execute Role</text>
<text xml:space="preserve" text-anchor="middle" x="785.95" y="-2251.05" font-family="Segoe UI" font-size="12.00" fill="#2d3436">(ExternalId)</text>
</g>
<!-- 7f8488d3dc164b3099ccfb5e5d3ed3fa&#45;&gt;b631f0f509944f04890f3eed4b0654b6 -->
<g id="edge35" class="edge">
<title>7f8488d3dc164b3099ccfb5e5d3ed3fa&#45;&gt;b631f0f509944f04890f3eed4b0654b6</title>
<path fill="none" stroke="#7f7f7f" stroke-dasharray="5,2" d="M503.45,-1297.1C531.86,-1297.1 561.8,-1297.1 561.8,-1297.1 561.8,-1297.1 561.8,-2311.44 561.8,-2311.44 561.8,-2311.44 724.13,-2311.44 724.13,-2311.44"/>
<polygon fill="#7f7f7f" stroke="#7f7f7f" points="724.13,-2314.94 734.13,-2311.44 724.13,-2307.94 724.13,-2314.94"/>
<text xml:space="preserve" text-anchor="middle" x="623.1" y="-2116.15" font-family="Sans-Serif" font-size="13.00" fill="#2d3436">AssumeRole</text>
</g>
<!-- 9651f7e3ad14441eb2cb5c8f1523087b&#45;&gt;05a580ded89c4d9c91f330e304814bbf -->
<g id="edge9" class="edge">
<title>9651f7e3ad14441eb2cb5c8f1523087b&#45;&gt;05a580ded89c4d9c91f330e304814bbf</title>
<path fill="none" stroke="#666666" d="M503.72,-1082.2C569.9,-1082.2 677.8,-1082.2 677.8,-1082.2 677.8,-1082.2 677.8,-1284.5 677.8,-1284.5 677.8,-1284.5 724.16,-1284.5 724.16,-1284.5"/>
<polygon fill="#666666" stroke="#666666" points="724.16,-1288 734.16,-1284.5 724.16,-1281 724.16,-1288"/>
</g>
<!-- fdfeb25570c0412bae5867aa4660d7a8 -->
<g id="node9" class="node">
<title>fdfeb25570c0412bae5867aa4660d7a8</title>
<image xlink:href="C:\Users\deepa\AppData\Roaming\Python\Python313\site-packages\resources/aws/storage\simple-storage-service-s3.png" width="100.8px" height="100.8px" preserveAspectRatio="xMinYMin meet" x="735.55" y="-1620.4"/>
<text xml:space="preserve" text-anchor="middle" x="785.95" y="-1510.3" font-family="Segoe UI" font-size="12.00" fill="#2d3436">Artifacts &amp; Outputs</text>
<text xml:space="preserve" text-anchor="middle" x="785.95" y="-1493.05" font-family="Segoe UI" font-size="12.00" fill="#2d3436">(SSE&#45;KMS)</text>
</g>
<!-- 9651f7e3ad14441eb2cb5c8f1523087b&#45;&gt;fdfeb25570c0412bae5867aa4660d7a8 -->
<g id="edge14" class="edge">
<title>9651f7e3ad14441eb2cb5c8f1523087b&#45;&gt;fdfeb25570c0412bae5867aa4660d7a8</title>
<path fill="none" stroke="#666666" d="M503.68,-1092.5C561.59,-1092.5 648.8,-1092.5 648.8,-1092.5 648.8,-1092.5 648.8,-1506.9 648.8,-1506.9 648.8,-1506.9 724.15,-1506.9 724.15,-1506.9"/>
<polygon fill="#666666" stroke="#666666" points="724.15,-1510.4 734.15,-1506.9 724.15,-1503.4 724.15,-1510.4"/>
</g>
<!-- 9651f7e3ad14441eb2cb5c8f1523087b&#45;&gt;99503b60fbc74e66943826c8da0b4326 -->
<g id="edge25" class="edge">
<title>9651f7e3ad14441eb2cb5c8f1523087b&#45;&gt;99503b60fbc74e66943826c8da0b4326</title>
<path fill="none" stroke="orange" stroke-dasharray="1,5" d="M503.53,-1032.8C675.68,-1032.8 1231.8,-1032.8 1231.8,-1032.8 1231.8,-1032.8 1231.8,-380.29 1231.8,-380.29"/>
<polygon fill="orange" stroke="orange" points="1235.3,-380.29 1231.8,-370.29 1228.3,-380.29 1235.3,-380.29"/>
<text xml:space="preserve" text-anchor="middle" x="947.78" y="-118.15" font-family="Sans-Serif" font-size="13.00" fill="#2d3436">Status</text>
</g>
<!-- 0ff0ec862e3544a699635114d5f574ee -->
<g id="node13" class="node">
<title>0ff0ec862e3544a699635114d5f574ee</title>
<image xlink:href="C:\Users\deepa\AppData\Roaming\Python\Python313\site-packages\resources/generic/blank\blank.png" width="100.8px" height="100.8px" preserveAspectRatio="xMinYMin meet" x="735.55" y="-1000.4"/>
<text xml:space="preserve" text-anchor="middle" x="785.95" y="-887.45" font-family="Segoe UI" font-size="12.00" fill="#2d3436">WindowsPrePatch</text>
</g>
<!-- 9651f7e3ad14441eb2cb5c8f1523087b&#45;&gt;0ff0ec862e3544a699635114d5f574ee -->
<g id="edge28" class="edge">
<title>9651f7e3ad14441eb2cb5c8f1523087b&#45;&gt;0ff0ec862e3544a699635114d5f574ee</title>
<path fill="none" stroke="purple" stroke-dasharray="5,2" d="M503.5,-1002.5C503.5,-1002.5 724.15,-1002.5 724.15,-1002.5"/>
<polygon fill="purple" stroke="purple" points="724.15,-1006 734.15,-1002.5 724.15,-999 724.15,-1006"/>
<text xml:space="preserve" text-anchor="middle" x="623.1" y="-986.15" font-family="Sans-Serif" font-size="13.00" fill="#2d3436">PrePatch</text>
</g>
<!-- be865be9b59e4710858e01b820d614de -->
<g id="node14" class="node">
<title>be865be9b59e4710858e01b820d614de</title>
<image xlink:href="C:\Users\deepa\AppData\Roaming\Python\Python313\site-packages\resources/generic/blank\blank.png" width="100.8px" height="100.8px" preserveAspectRatio="xMinYMin meet" x="735.55" y="-1180.4"/>
<text xml:space="preserve" text-anchor="middle" x="785.95" y="-1067.45" font-family="Segoe UI" font-size="12.00" fill="#2d3436">WindowsPatch</text>
</g>
<!-- 9651f7e3ad14441eb2cb5c8f1523087b&#45;&gt;be865be9b59e4710858e01b820d614de -->
<g id="edge29" class="edge">
<title>9651f7e3ad14441eb2cb5c8f1523087b&#45;&gt;be865be9b59e4710858e01b820d614de</title>
<path fill="none" stroke="purple" stroke-dasharray="5,2" d="M503.5,-1071.9C503.5,-1071.9 724.15,-1071.9 724.15,-1071.9"/>
<polygon fill="purple" stroke="purple" points="724.15,-1075.4 734.15,-1071.9 724.15,-1068.4 724.15,-1075.4"/>
<text xml:space="preserve" text-anchor="middle" x="623.1" y="-1084.15" font-family="Sans-Serif" font-size="13.00" fill="#2d3436">Patch</text>
</g>
<!-- 14c605a6ca0244a8a6fd561ae42484a3 -->
<g id="node15" class="node">
<title>14c605a6ca0244a8a6fd561ae42484a3</title>
<image xlink:href="C:\Users\deepa\AppData\Roaming\Python\Python313\site-packages\resources/generic/blank\blank.png" width="100.8px" height="100.8px" preserveAspectRatio="xMinYMin meet" x="735.55" y="-820.4"/>
<text xml:space="preserve" text-anchor="middle" x="785.95" y="-707.45" font-family="Segoe UI" font-size="12.00" fill="#2d3436">WindowsPostPatch</text>
</g>
<!-- 9651f7e3ad14441eb2cb5c8f1523087b&#45;&gt;14c605a6ca0244a8a6fd561ae42484a3 -->
<g id="edge30" class="edge">
<title>9651f7e3ad14441eb2cb5c8f1523087b&#45;&gt;14c605a6ca0244a8a6fd561ae42484a3</title>
<path fill="none" stroke="purple" stroke-dasharray="5,2" d="M483.8,-986.74C483.8,-902.42 483.8,-770 483.8,-770 483.8,-770 724.2,-770 724.2,-770"/>
<polygon fill="purple" stroke="purple" points="724.2,-773.5 734.2,-770 724.2,-766.5 724.2,-773.5"/>
<text xml:space="preserve" text-anchor="middle" x="623.1" y="-831.15" font-family="Sans-Serif" font-size="13.00" fill="#2d3436">PostPatch</text>
</g>
<!-- d538627ee6a64b9ca68bee77e24aaddc -->
<g id="node16" class="node">
<title>d538627ee6a64b9ca68bee77e24aaddc</title>
<image xlink:href="C:\Users\deepa\AppData\Roaming\Python\Python313\site-packages\resources/generic/blank\blank.png" width="100.8px" height="100.8px" preserveAspectRatio="xMinYMin meet" x="735.55" y="-276.4"/>
<text xml:space="preserve" text-anchor="middle" x="785.95" y="-163.45" font-family="Segoe UI" font-size="12.00" fill="#2d3436">LinuxPrePatch</text>
</g>
<!-- 9651f7e3ad14441eb2cb5c8f1523087b&#45;&gt;d538627ee6a64b9ca68bee77e24aaddc -->
<g id="edge31" class="edge">
<title>9651f7e3ad14441eb2cb5c8f1523087b&#45;&gt;d538627ee6a64b9ca68bee77e24aaddc</title>
<path fill="none" stroke="purple" stroke-dasharray="5,2" d="M422.8,-986.81C422.8,-788.5 422.8,-226 422.8,-226 422.8,-226 724.32,-226 724.32,-226"/>
<polygon fill="purple" stroke="purple" points="724.32,-229.5 734.32,-226 724.32,-222.5 724.32,-229.5"/>
<text xml:space="preserve" text-anchor="middle" x="623.1" y="-331.15" font-family="Sans-Serif" font-size="13.00" fill="#2d3436">PrePatch</text>
</g>
<!-- 903a508b055f4478adc5adab6d635da9 -->
<g id="node17" class="node">
<title>903a508b055f4478adc5adab6d635da9</title>
<image xlink:href="C:\Users\deepa\AppData\Roaming\Python\Python313\site-packages\resources/generic/blank\blank.png" width="100.8px" height="100.8px" preserveAspectRatio="xMinYMin meet" x="735.55" y="-456.4"/>
<text xml:space="preserve" text-anchor="middle" x="785.95" y="-343.45" font-family="Segoe UI" font-size="12.00" fill="#2d3436">LinuxPatch</text>
</g>
<!-- 9651f7e3ad14441eb2cb5c8f1523087b&#45;&gt;903a508b055f4478adc5adab6d635da9 -->
<g id="edge32" class="edge">
<title>9651f7e3ad14441eb2cb5c8f1523087b&#45;&gt;903a508b055f4478adc5adab6d635da9</title>
<path fill="none" stroke="purple" stroke-dasharray="5,2" d="M442.8,-986.77C442.8,-820.14 442.8,-406 442.8,-406 442.8,-406 724.17,-406 724.17,-406"/>
<polygon fill="purple" stroke="purple" points="724.17,-409.5 734.17,-406 724.17,-402.5 724.17,-409.5"/>
<text xml:space="preserve" text-anchor="middle" x="623.1" y="-497.15" font-family="Sans-Serif" font-size="13.00" fill="#2d3436">Patch</text>
</g>
<!-- 83eb7ef72206434e849833f9147edb27 -->
<g id="node18" class="node">
<title>83eb7ef72206434e849833f9147edb27</title>
<image xlink:href="C:\Users\deepa\AppData\Roaming\Python\Python313\site-packages\resources/generic/blank\blank.png" width="100.8px" height="100.8px" preserveAspectRatio="xMinYMin meet" x="735.55" y="-636.4"/>
<text xml:space="preserve" text-anchor="middle" x="785.95" y="-523.45" font-family="Segoe UI" font-size="12.00" fill="#2d3436">LinuxPostPatch</text>
</g>
<!-- 9651f7e3ad14441eb2cb5c8f1523087b&#45;&gt;83eb7ef72206434e849833f9147edb27 -->
<g id="edge33" class="edge">
<title>9651f7e3ad14441eb2cb5c8f1523087b&#45;&gt;83eb7ef72206434e849833f9147edb27</title>
<path fill="none" stroke="purple" stroke-dasharray="5,2" d="M463.8,-986.8C463.8,-856.73 463.8,-586 463.8,-586 463.8,-586 724.1,-586 724.1,-586"/>
<polygon fill="purple" stroke="purple" points="724.1,-589.5 734.1,-586 724.1,-582.5 724.1,-589.5"/>
<text xml:space="preserve" text-anchor="middle" x="623.1" y="-649.15" font-family="Sans-Serif" font-size="13.00" fill="#2d3436">PostPatch</text>
</g>
<!-- 8d80e89856a3473eaf125571cc047bf3 -->
<g id="node20" class="node">
<title>8d80e89856a3473eaf125571cc047bf3</title>
<image xlink:href="C:\Users\deepa\AppData\Roaming\Python\Python313\site-packages\resources/aws/compute\ec2.png" width="100.8px" height="100.8px" preserveAspectRatio="xMinYMin meet" x="735.55" y="-2155.4"/>
<text xml:space="preserve" text-anchor="middle" x="785.95" y="-2042.45" font-family="Segoe UI" font-size="12.00" fill="#2d3436">Windows (Tagged)</text>
</g>
<!-- 9651f7e3ad14441eb2cb5c8f1523087b&#45;&gt;8d80e89856a3473eaf125571cc047bf3 -->
<g id="edge39" class="edge">
<title>9651f7e3ad14441eb2cb5c8f1523087b&#45;&gt;8d80e89856a3473eaf125571cc047bf3</title>
<path fill="none" stroke="steelblue" d="M503.74,-1102.8C552.73,-1102.8 619.8,-1102.8 619.8,-1102.8 619.8,-1102.8 619.8,-2105 619.8,-2105 619.8,-2105 724.14,-2105 724.14,-2105"/>
<polygon fill="steelblue" stroke="steelblue" points="724.14,-2108.5 734.14,-2105 724.14,-2101.5 724.14,-2108.5"/>
<text xml:space="preserve" text-anchor="middle" x="623.1" y="-2181.15" font-family="Sans-Serif" font-size="13.00" fill="#2d3436">RunPatchBaseline</text>
</g>
<!-- a25dc5fb183c4b998c522492d30583ef -->
<g id="node21" class="node">
<title>a25dc5fb183c4b998c522492d30583ef</title>
<image xlink:href="C:\Users\deepa\AppData\Roaming\Python\Python313\site-packages\resources/aws/compute\ec2.png" width="100.8px" height="100.8px" preserveAspectRatio="xMinYMin meet" x="1002.15" y="-2155.4"/>
<text xml:space="preserve" text-anchor="middle" x="1052.55" y="-2042.45" font-family="Segoe UI" font-size="12.00" fill="#2d3436">Linux (Tagged)</text>
</g>
<!-- 9651f7e3ad14441eb2cb5c8f1523087b&#45;&gt;a25dc5fb183c4b998c522492d30583ef -->
<g id="edge40" class="edge">
<title>9651f7e3ad14441eb2cb5c8f1523087b&#45;&gt;a25dc5fb183c4b998c522492d30583ef</title>
<path fill="none" stroke="steelblue" d="M503.53,-1047.2C652.65,-1047.2 1082.8,-1047.2 1082.8,-1047.2 1082.8,-1047.2 1082.8,-2025.3 1082.8,-2025.3"/>
<polygon fill="steelblue" stroke="steelblue" points="1079.3,-2025.3 1082.8,-2035.3 1086.3,-2025.3 1079.3,-2025.3"/>
<text xml:space="preserve" text-anchor="middle" x="785.95" y="-1981.15" font-family="Sans-Serif" font-size="13.00" fill="#2d3436">RunPatchBaseline</text>
</g>
<!-- 9651f7e3ad14441eb2cb5c8f1523087b&#45;&gt;b631f0f509944f04890f3eed4b0654b6 -->
<g id="edge36" class="edge">
<title>9651f7e3ad14441eb2cb5c8f1523087b&#45;&gt;b631f0f509944f04890f3eed4b0654b6</title>
<path fill="none" stroke="#7f7f7f" stroke-dasharray="5,2" d="M503.36,-1113.1C542.66,-1113.1 590.8,-1113.1 590.8,-1113.1 590.8,-1113.1 590.8,-2278.32 590.8,-2278.32 590.8,-2278.32 724.18,-2278.32 724.18,-2278.32"/>
<polygon fill="#7f7f7f" stroke="#7f7f7f" points="724.18,-2281.82 734.18,-2278.32 724.18,-2274.82 724.18,-2281.82"/>
<text xml:space="preserve" text-anchor="middle" x="623.1" y="-1889.15" font-family="Sans-Serif" font-size="13.00" fill="#2d3436">AssumeRole</text>
</g>
<!-- e030b5dc028a4910827778a0e70a1e02&#45;&gt;05a580ded89c4d9c91f330e304814bbf -->
<g id="edge11" class="edge">
<title>e030b5dc028a4910827778a0e70a1e02&#45;&gt;05a580ded89c4d9c91f330e304814bbf</title>
<path fill="none" stroke="#666666" d="M503.73,-1568.67C577.64,-1568.67 706.8,-1568.67 706.8,-1568.67 706.8,-1568.67 706.8,-1411.4 706.8,-1411.4 706.8,-1411.4 724.31,-1411.4 724.31,-1411.4"/>
<polygon fill="#666666" stroke="#666666" points="724.31,-1414.9 734.31,-1411.4 724.31,-1407.9 724.31,-1414.9"/>
</g>
<!-- e030b5dc028a4910827778a0e70a1e02&#45;&gt;fdfeb25570c0412bae5867aa4660d7a8 -->
<g id="edge15" class="edge">
<title>e030b5dc028a4910827778a0e70a1e02&#45;&gt;fdfeb25570c0412bae5867aa4660d7a8</title>
<path fill="none" stroke="#666666" d="M503.5,-1610.73C503.5,-1610.73 724.15,-1610.73 724.15,-1610.73"/>
<polygon fill="#666666" stroke="#666666" points="724.15,-1614.23 734.15,-1610.73 724.15,-1607.23 724.15,-1614.23"/>
</g>
<!-- e030b5dc028a4910827778a0e70a1e02&#45;&gt;99503b60fbc74e66943826c8da0b4326 -->
<g id="edge26" class="edge">
<title>e030b5dc028a4910827778a0e70a1e02&#45;&gt;99503b60fbc74e66943826c8da0b4326</title>
<path fill="none" stroke="orange" stroke-dasharray="1,5" d="M503.6,-1655.45C684.49,-1655.45 1291.8,-1655.45 1291.8,-1655.45 1291.8,-1655.45 1291.8,-380.09 1291.8,-380.09"/>
<polygon fill="orange" stroke="orange" points="1295.3,-380.09 1291.8,-370.09 1288.3,-380.09 1295.3,-380.09"/>
<text xml:space="preserve" text-anchor="middle" x="947.78" y="-1776.15" font-family="Sans-Serif" font-size="13.00" fill="#2d3436">Status</text>
</g>
<!-- e030b5dc028a4910827778a0e70a1e02&#45;&gt;8d80e89856a3473eaf125571cc047bf3 -->
<g id="edge41" class="edge">
<title>e030b5dc028a4910827778a0e70a1e02&#45;&gt;8d80e89856a3473eaf125571cc047bf3</title>
<path fill="none" stroke="steelblue" d="M514.99,-1660.75C514.99,-1660.75 785.8,-1660.75 785.8,-1660.75 785.8,-1660.75 785.8,-1912.6 785.8,-2037.04"/>
<polygon fill="steelblue" stroke="steelblue" points="514.99,-1657.25 504.99,-1660.75 514.99,-1664.25 514.99,-1657.25"/>
<text xml:space="preserve" text-anchor="middle" x="623.1" y="-2051.15" font-family="Sans-Serif" font-size="13.00" fill="#2d3436">GetResults</text>
</g>
<!-- e030b5dc028a4910827778a0e70a1e02&#45;&gt;a25dc5fb183c4b998c522492d30583ef -->
<g id="edge42" class="edge">
<title>e030b5dc028a4910827778a0e70a1e02&#45;&gt;a25dc5fb183c4b998c522492d30583ef</title>
<path fill="none" stroke="steelblue" d="M515.26,-1658.1C515.26,-1658.1 1062.8,-1658.1 1062.8,-1658.1 1062.8,-1658.1 1062.8,-1911.45 1062.8,-2036.64"/>
<polygon fill="steelblue" stroke="steelblue" points="515.26,-1654.6 505.26,-1658.1 515.26,-1661.6 515.26,-1654.6"/>
<text xml:space="preserve" text-anchor="middle" x="785.95" y="-1878.15" font-family="Sans-Serif" font-size="13.00" fill="#2d3436">GetResults</text>
</g>
<!-- e030b5dc028a4910827778a0e70a1e02&#45;&gt;b631f0f509944f04890f3eed4b0654b6 -->
<g id="edge37" class="edge">
<title>e030b5dc028a4910827778a0e70a1e02&#45;&gt;b631f0f509944f04890f3eed4b0654b6</title>
<path fill="none" stroke="#7f7f7f" stroke-dasharray="5,2" d="M453.8,-1663.09C453.8,-1853.51 453.8,-2377.68 453.8,-2377.68 453.8,-2377.68 724.35,-2377.68 724.35,-2377.68"/>
<polygon fill="#7f7f7f" stroke="#7f7f7f" points="724.35,-2381.18 734.35,-2377.68 724.35,-2374.18 724.35,-2381.18"/>
<text xml:space="preserve" text-anchor="middle" x="623.1" y="-69.15" font-family="Sans-Serif" font-size="13.00" fill="#2d3436">AssumeRole</text>
</g>
<!-- 142ed034ee6345eea80525c07d8b3f64&#45;&gt;05a580ded89c4d9c91f330e304814bbf -->
<g id="edge13" class="edge">
<title>142ed034ee6345eea80525c07d8b3f64&#45;&gt;05a580ded89c4d9c91f330e304814bbf</title>
<path fill="none" stroke="#666666" d="M503.5,-1379C503.5,-1379 724.15,-1379 724.15,-1379"/>
<polygon fill="#666666" stroke="#666666" points="724.15,-1382.5 734.15,-1379 724.15,-1375.5 724.15,-1382.5"/>
</g>
<!-- 142ed034ee6345eea80525c07d8b3f64&#45;&gt;fdfeb25570c0412bae5867aa4660d7a8 -->
<g id="edge16" class="edge">
<title>142ed034ee6345eea80525c07d8b3f64&#45;&gt;fdfeb25570c0412bae5867aa4660d7a8</title>
<path fill="none" stroke="#666666" d="M503.48,-1473.5C596.35,-1473.5 785.8,-1473.5 785.8,-1473.5 785.8,-1473.5 785.8,-1475.81 785.8,-1475.81"/>
<polygon fill="#666666" stroke="#666666" points="782.3,-1475.81 785.8,-1485.81 789.3,-1475.81 782.3,-1475.81"/>
</g>
<!-- 142ed034ee6345eea80525c07d8b3f64&#45;&gt;99503b60fbc74e66943826c8da0b4326 -->
<g id="edge27" class="edge">
<title>142ed034ee6345eea80525c07d8b3f64&#45;&gt;99503b60fbc74e66943826c8da0b4326</title>
<path fill="none" stroke="orange" stroke-dasharray="1,5" d="M503.62,-1453.7C681.69,-1453.7 1271.8,-1453.7 1271.8,-1453.7 1271.8,-1453.7 1271.8,-380.09 1271.8,-380.09"/>
<polygon fill="orange" stroke="orange" points="1275.3,-380.09 1271.8,-370.09 1268.3,-380.09 1275.3,-380.09"/>
<text xml:space="preserve" text-anchor="middle" x="947.78" y="-1711.15" font-family="Sans-Serif" font-size="13.00" fill="#2d3436">Status</text>
</g>
<!-- 142ed034ee6345eea80525c07d8b3f64&#45;&gt;b631f0f509944f04890f3eed4b0654b6 -->
<g id="edge38" class="edge">
<title>142ed034ee6345eea80525c07d8b3f64&#45;&gt;b631f0f509944f04890f3eed4b0654b6</title>
<path fill="none" stroke="#7f7f7f" stroke-dasharray="5,2" d="M503.67,-1463.6C519.43,-1463.6 532.8,-1463.6 532.8,-1463.6 532.8,-1463.6 532.8,-2344.56 532.8,-2344.56 532.8,-2344.56 724.12,-2344.56 724.12,-2344.56"/>
<polygon fill="#7f7f7f" stroke="#7f7f7f" points="724.12,-2348.06 734.12,-2344.56 724.12,-2341.06 724.12,-2348.06"/>
<text xml:space="preserve" text-anchor="middle" x="623.1" y="-4.15" font-family="Sans-Serif" font-size="13.00" fill="#2d3436">AssumeRole</text>
</g>
<!-- 06654e493e3048b3bf9a6261ca4a41cc -->
<g id="node7" class="node">
<title>06654e493e3048b3bf9a6261ca4a41cc</title>
<image xlink:href="C:\Users\deepa\AppData\Roaming\Python\Python313\site-packages\resources/aws/security\identity-and-access-management-iam.png" width="100.8px" height="100.8px" preserveAspectRatio="xMinYMin meet" x="197.8" y="-1319.4"/>
<text xml:space="preserve" text-anchor="middle" x="248.2" y="-1209.3" font-family="Segoe UI" font-size="12.00" fill="#2d3436">UnifiedExecutionRole</text>
<text xml:space="preserve" text-anchor="middle" x="248.2" y="-1192.05" font-family="Segoe UI" font-size="12.00" fill="#2d3436">(Single IAM Role)</text>
</g>
<!-- 06654e493e3048b3bf9a6261ca4a41cc&#45;&gt;7f8488d3dc164b3099ccfb5e5d3ed3fa -->
<g id="edge6" class="edge">
<title>06654e493e3048b3bf9a6261ca4a41cc&#45;&gt;7f8488d3dc164b3099ccfb5e5d3ed3fa</title>
<path fill="none" stroke="#666666" d="M298.39,-1244.8C298.39,-1244.8 391.46,-1244.8 391.46,-1244.8"/>
<polygon fill="#666666" stroke="#666666" points="391.46,-1248.3 401.46,-1244.8 391.46,-1241.3 391.46,-1248.3"/>
</g>
<!-- 06654e493e3048b3bf9a6261ca4a41cc&#45;&gt;9651f7e3ad14441eb2cb5c8f1523087b -->
<g id="edge8" class="edge">
<title>06654e493e3048b3bf9a6261ca4a41cc&#45;&gt;9651f7e3ad14441eb2cb5c8f1523087b</title>
<path fill="none" stroke="#666666" d="M247.8,-1186.3C247.8,-1167.12 247.8,-1152.2 247.8,-1152.2 247.8,-1152.2 436.8,-1152.2 436.8,-1152.2 436.8,-1152.2 436.8,-1134.81 436.8,-1134.81"/>
<polygon fill="#666666" stroke="#666666" points="440.3,-1134.81 436.8,-1124.81 433.3,-1134.81 440.3,-1134.81"/>
</g>
<!-- 06654e493e3048b3bf9a6261ca4a41cc&#45;&gt;e030b5dc028a4910827778a0e70a1e02 -->
<g id="edge10" class="edge">
<title>06654e493e3048b3bf9a6261ca4a41cc&#45;&gt;e030b5dc028a4910827778a0e70a1e02</title>
<path fill="none" stroke="#666666" d="M247.8,-1351.62C247.8,-1432.34 247.8,-1543.13 247.8,-1543.13 247.8,-1543.13 391.55,-1543.13 391.55,-1543.13"/>
<polygon fill="#666666" stroke="#666666" points="391.55,-1546.63 401.55,-1543.13 391.55,-1539.63 391.55,-1546.63"/>
</g>
<!-- 06654e493e3048b3bf9a6261ca4a41cc&#45;&gt;142ed034ee6345eea80525c07d8b3f64 -->
<g id="edge12" class="edge">
<title>06654e493e3048b3bf9a6261ca4a41cc&#45;&gt;142ed034ee6345eea80525c07d8b3f64</title>
<path fill="none" stroke="#666666" d="M298.5,-1325C359.36,-1325 453.8,-1325 453.8,-1325 453.8,-1325 453.8,-1335.27 453.8,-1335.27"/>
<polygon fill="#666666" stroke="#666666" points="450.3,-1335.27 453.8,-1345.27 457.3,-1335.27 450.3,-1335.27"/>
</g>
<!-- 9ec15d0a64e645df9200d9dbaa3ba9f6 -->
<g id="node10" class="node">
<title>9ec15d0a64e645df9200d9dbaa3ba9f6</title>
<image xlink:href="C:\Users\deepa\AppData\Roaming\Python\Python313\site-packages\resources/aws/security\key-management-service.png" width="100.8px" height="100.8px" preserveAspectRatio="xMinYMin meet" x="1385" y="-209.4"/>
<text xml:space="preserve" text-anchor="middle" x="1435.4" y="-96.45" font-family="Segoe UI" font-size="12.00" fill="#2d3436">KMS Keys</text>
</g>
<!-- 05a580ded89c4d9c91f330e304814bbf&#45;&gt;9ec15d0a64e645df9200d9dbaa3ba9f6 -->
<g id="edge17" class="edge">
<title>05a580ded89c4d9c91f330e304814bbf&#45;&gt;9ec15d0a64e645df9200d9dbaa3ba9f6</title>
<path fill="none" stroke="#666666" d="M836.14,-1388.6C985.82,-1388.6 1418.8,-1388.6 1418.8,-1388.6 1418.8,-1388.6 1418.8,-238.81 1418.8,-238.81"/>
<polygon fill="#666666" stroke="#666666" points="1422.3,-238.81 1418.8,-228.81 1415.3,-238.81 1422.3,-238.81"/>
</g>
<!-- 05a580ded89c4d9c91f330e304814bbf&#45;&gt;f3a7c196bcee4d10a57825e14cec3f2c -->
<g id="edge21" class="edge">
<title>05a580ded89c4d9c91f330e304814bbf&#45;&gt;f3a7c196bcee4d10a57825e14cec3f2c</title>
<path fill="none" stroke="#666666" d="M836.18,-1333.4C905.7,-1333.4 1022.8,-1333.4 1022.8,-1333.4 1022.8,-1333.4 1022.8,-365.83 1022.8,-365.83"/>
<polygon fill="#666666" stroke="#666666" points="1026.3,-365.83 1022.8,-355.83 1019.3,-365.83 1026.3,-365.83"/>
</g>
<!-- fdfeb25570c0412bae5867aa4660d7a8&#45;&gt;9ec15d0a64e645df9200d9dbaa3ba9f6 -->
<g id="edge18" class="edge">
<title>fdfeb25570c0412bae5867aa4660d7a8&#45;&gt;9ec15d0a64e645df9200d9dbaa3ba9f6</title>
<path fill="none" stroke="#666666" d="M836.27,-1597.6C991.39,-1597.6 1451.8,-1597.6 1451.8,-1597.6 1451.8,-1597.6 1451.8,-238.45 1451.8,-238.45"/>
<polygon fill="#666666" stroke="#666666" points="1455.3,-238.45 1451.8,-228.45 1448.3,-238.45 1455.3,-238.45"/>
</g>
<!-- fdfeb25570c0412bae5867aa4660d7a8&#45;&gt;f3a7c196bcee4d10a57825e14cec3f2c -->
<g id="edge22" class="edge">
<title>fdfeb25570c0412bae5867aa4660d7a8&#45;&gt;f3a7c196bcee4d10a57825e14cec3f2c</title>
<path fill="none" stroke="#666666" d="M836.08,-1542.4C910.83,-1542.4 1042.8,-1542.4 1042.8,-1542.4 1042.8,-1542.4 1042.8,-365.51 1042.8,-365.51"/>
<polygon fill="#666666" stroke="#666666" points="1046.3,-365.51 1042.8,-355.51 1039.3,-365.51 1046.3,-365.51"/>
</g>
<!-- 99503b60fbc74e66943826c8da0b4326&#45;&gt;9ec15d0a64e645df9200d9dbaa3ba9f6 -->
<g id="edge19" class="edge">
<title>99503b60fbc74e66943826c8da0b4326&#45;&gt;9ec15d0a64e645df9200d9dbaa3ba9f6</title>
<path fill="none" stroke="#666666" d="M1311.87,-215.3C1311.87,-215.3 1373.73,-215.3 1373.73,-215.3"/>
<polygon fill="#666666" stroke="#666666" points="1373.73,-218.8 1383.73,-215.3 1373.73,-211.8 1373.73,-218.8"/>
</g>
<!-- f3a7c196bcee4d10a57825e14cec3f2c&#45;&gt;99503b60fbc74e66943826c8da0b4326 -->
<g id="edge23" class="edge">
<title>f3a7c196bcee4d10a57825e14cec3f2c&#45;&gt;99503b60fbc74e66943826c8da0b4326</title>
<path fill="none" stroke="orange" d="M1102.89,-286C1102.89,-286 1199.82,-286 1199.82,-286"/>
<polygon fill="orange" stroke="orange" points="1199.82,-289.5 1209.82,-286 1199.82,-282.5 1199.82,-289.5"/>
<text xml:space="preserve" text-anchor="middle" x="1159.08" y="-290.15" font-family="Sans-Serif" font-size="13.00" fill="#2d3436">Alerts</text>
</g>
<!-- 0b4dcb6fd43c4cbea3245bd8f7528ae5 -->
<g id="node19" class="node">
<title>0b4dcb6fd43c4cbea3245bd8f7528ae5</title>
<image xlink:href="C:\Users\deepa\AppData\Roaming\Python\Python313\site-packages\resources/aws/management\cloudformation.png" width="100.8px" height="100.8px" preserveAspectRatio="xMinYMin meet" x="24" y="-1533.4"/>
<text xml:space="preserve" text-anchor="middle" x="74.4" y="-1420.45" font-family="Segoe UI" font-size="12.00" fill="#2d3436">CFN&#45;Only Deployments</text>
</g>
<!-- 8d80e89856a3473eaf125571cc047bf3&#45;&gt;a25dc5fb183c4b998c522492d30583ef -->
</g>
</svg>
