<?xml version="1.0" encoding="UTF-8" standalone="no"?>
<!DOCTYPE svg PUBLIC "-//W3C//DTD SVG 1.1//EN"
 "http://www.w3.org/Graphics/SVG/1.1/DTD/svg11.dtd">
<!-- Generated by graphviz version 13.1.2 (20250808.2320)
 -->
<!-- Title: EC2 Patching Orchestrator (Hub&#45;and&#45;Spoke) Pages: 1 -->
<svg width="1731pt" height="1637pt"
 viewBox="0.00 0.00 1731.00 1637.00" xmlns="http://www.w3.org/2000/svg" xmlns:xlink="http://www.w3.org/1999/xlink">
<g id="graph0" class="graph" transform="scale(1 1) rotate(0) translate(36 1600.75)">
<title>EC2 Patching Orchestrator (Hub&#45;and&#45;Spoke)</title>
<polygon fill="white" stroke="none" points="-36,36 -36,-1600.75 1694.6,-1600.75 1694.6,36 -36,36"/>
<text xml:space="preserve" text-anchor="middle" x="829.3" y="-1541.75" font-family="Sans-Serif" font-size="20.00" fill="#2d3436">EC2 Patching Orchestrator (Hub&#45;and&#45;Spoke)</text>
<g id="clust1" class="cluster">
<title>cluster_Hub Account (Control Plane)</title>
<path fill="#e5f5fd" stroke="#aeb6be" d="M20,-710C20,-710 1638.6,-710 1638.6,-710 1644.6,-710 1650.6,-716 1650.6,-722 1650.6,-722 1650.6,-1512 1650.6,-1512 1650.6,-1518 1644.6,-1524 1638.6,-1524 1638.6,-1524 20,-1524 20,-1524 14,-1524 8,-1518 8,-1512 8,-1512 8,-722 8,-722 8,-716 14,-710 20,-710"/>
<text xml:space="preserve" text-anchor="middle" x="91.75" y="-1508.6" font-family="Sans-Serif" font-size="12.00" fill="#2d3436">Hub Account (Control Plane)</text>
</g>
<g id="clust2" class="cluster">
<title>cluster_Orchestration</title>
<path fill="#ebf3e7" stroke="#aeb6be" d="M479.35,-738C479.35,-738 745.95,-738 745.95,-738 751.95,-738 757.95,-744 757.95,-750 757.95,-750 757.95,-932 757.95,-932 757.95,-938 751.95,-944 745.95,-944 745.95,-944 479.35,-944 479.35,-944 473.35,-944 467.35,-938 467.35,-932 467.35,-932 467.35,-750 467.35,-750 467.35,-744 473.35,-738 479.35,-738"/>
<text xml:space="preserve" text-anchor="middle" x="510.6" y="-928.6" font-family="Sans-Serif" font-size="12.00" fill="#2d3436">Orchestration</text>
</g>
<g id="clust3" class="cluster">
<title>cluster_Patching Lambdas</title>
<path fill="#ebf3e7" stroke="#aeb6be" d="M826.95,-718C826.95,-718 919.75,-718 919.75,-718 925.75,-718 931.75,-724 931.75,-730 931.75,-730 931.75,-1422 931.75,-1422 931.75,-1428 925.75,-1434 919.75,-1434 919.75,-1434 826.95,-1434 826.95,-1434 820.95,-1434 814.95,-1428 814.95,-1422 814.95,-1422 814.95,-730 814.95,-730 814.95,-724 820.95,-718 826.95,-718"/>
<text xml:space="preserve" text-anchor="middle" x="870.58" y="-1418.6" font-family="Sans-Serif" font-size="12.00" fill="#2d3436">Patching Lambdas</text>
</g>
<g id="clust4" class="cluster">
<title>cluster_Approval Flow</title>
<path fill="#ebf3e7" stroke="#aeb6be" d="M28,-952C28,-952 572.15,-952 572.15,-952 578.15,-952 584.15,-958 584.15,-964 584.15,-964 584.15,-1296 584.15,-1296 584.15,-1302 578.15,-1308 572.15,-1308 572.15,-1308 28,-1308 28,-1308 22,-1308 16,-1302 16,-1296 16,-1296 16,-964 16,-964 16,-958 22,-952 28,-952"/>
<text xml:space="preserve" text-anchor="middle" x="61.88" y="-1292.6" font-family="Sans-Serif" font-size="12.00" fill="#2d3436">Approval Flow</text>
</g>
<g id="clust5" class="cluster">
<title>cluster_Data &amp; Storage</title>
<path fill="#ebf3e7" stroke="#aeb6be" d="M1113.75,-868C1113.75,-868 1206.55,-868 1206.55,-868 1212.55,-868 1218.55,-874 1218.55,-880 1218.55,-880 1218.55,-1271 1218.55,-1271 1218.55,-1277 1212.55,-1283 1206.55,-1283 1206.55,-1283 1113.75,-1283 1113.75,-1283 1107.75,-1283 1101.75,-1277 1101.75,-1271 1101.75,-1271 1101.75,-880 1101.75,-880 1101.75,-874 1107.75,-868 1113.75,-868"/>
<text xml:space="preserve" text-anchor="middle" x="1149.88" y="-1267.6" font-family="Sans-Serif" font-size="12.00" fill="#2d3436">Data &amp; Storage</text>
</g>
<g id="clust6" class="cluster">
<title>cluster_Notifications &amp; Observability</title>
<path fill="#ebf3e7" stroke="#aeb6be" d="M1307.55,-1136C1307.55,-1136 1448.8,-1136 1448.8,-1136 1454.8,-1136 1460.8,-1142 1460.8,-1148 1460.8,-1148 1460.8,-1480 1460.8,-1480 1460.8,-1486 1454.8,-1492 1448.8,-1492 1448.8,-1492 1307.55,-1492 1307.55,-1492 1301.55,-1492 1295.55,-1486 1295.55,-1480 1295.55,-1480 1295.55,-1148 1295.55,-1148 1295.55,-1142 1301.55,-1136 1307.55,-1136"/>
<text xml:space="preserve" text-anchor="middle" x="1378.18" y="-1476.6" font-family="Sans-Serif" font-size="12.00" fill="#2d3436">Notifications &amp; Observability</text>
</g>
<g id="clust7" class="cluster">
<title>cluster_Security &amp; Keys</title>
<path fill="#ebf3e7" stroke="#aeb6be" d="M1537.8,-1024C1537.8,-1024 1630.6,-1024 1630.6,-1024 1636.6,-1024 1642.6,-1030 1642.6,-1036 1642.6,-1036 1642.6,-1188 1642.6,-1188 1642.6,-1194 1636.6,-1200 1630.6,-1200 1630.6,-1200 1537.8,-1200 1537.8,-1200 1531.8,-1200 1525.8,-1194 1525.8,-1188 1525.8,-1188 1525.8,-1036 1525.8,-1036 1525.8,-1030 1531.8,-1024 1537.8,-1024"/>
<text xml:space="preserve" text-anchor="middle" x="1574.68" y="-1184.6" font-family="Sans-Serif" font-size="12.00" fill="#2d3436">Security &amp; Keys</text>
</g>
<g id="clust8" class="cluster">
<title>cluster_Deployment</title>
<path fill="#ebf3e7" stroke="#aeb6be" d="M28,-1316C28,-1316 120.8,-1316 120.8,-1316 126.8,-1316 132.8,-1322 132.8,-1328 132.8,-1328 132.8,-1480 132.8,-1480 132.8,-1486 126.8,-1492 120.8,-1492 120.8,-1492 28,-1492 28,-1492 22,-1492 16,-1486 16,-1480 16,-1480 16,-1328 16,-1328 16,-1322 22,-1316 28,-1316"/>
<text xml:space="preserve" text-anchor="middle" x="55.5" y="-1476.6" font-family="Sans-Serif" font-size="12.00" fill="#2d3436">Deployment</text>
</g>
<g id="clust9" class="cluster">
<title>cluster_Spoke Accounts (Targets)</title>
<path fill="#e5f5fd" stroke="#aeb6be" d="M1081.75,-8C1081.75,-8 1238.55,-8 1238.55,-8 1244.55,-8 1250.55,-14 1250.55,-20 1250.55,-20 1250.55,-690 1250.55,-690 1250.55,-696 1244.55,-702 1238.55,-702 1238.55,-702 1081.75,-702 1081.75,-702 1075.75,-702 1069.75,-696 1069.75,-690 1069.75,-690 1069.75,-20 1069.75,-20 1069.75,-14 1075.75,-8 1081.75,-8"/>
<text xml:space="preserve" text-anchor="middle" x="1145.25" y="-686.6" font-family="Sans-Serif" font-size="12.00" fill="#2d3436">Spoke Accounts (Targets)</text>
</g>
<g id="clust10" class="cluster">
<title>cluster_Spoke 1..N</title>
<path fill="#ebf3e7" stroke="#aeb6be" d="M1089.75,-16C1089.75,-16 1230.55,-16 1230.55,-16 1236.55,-16 1242.55,-22 1242.55,-28 1242.55,-28 1242.55,-658 1242.55,-658 1242.55,-664 1236.55,-670 1230.55,-670 1230.55,-670 1089.75,-670 1089.75,-670 1083.75,-670 1077.75,-664 1077.75,-658 1077.75,-658 1077.75,-28 1077.75,-28 1077.75,-22 1083.75,-16 1089.75,-16"/>
<text xml:space="preserve" text-anchor="middle" x="1115" y="-654.6" font-family="Sans-Serif" font-size="12.00" fill="#2d3436">Spoke 1..N</text>
</g>
<g id="clust11" class="cluster">
<title>cluster_Regions</title>
<path fill="#ece8f6" stroke="#aeb6be" d="M1097.75,-24C1097.75,-24 1222.55,-24 1222.55,-24 1228.55,-24 1234.55,-30 1234.55,-36 1234.55,-36 1234.55,-452 1234.55,-452 1234.55,-458 1228.55,-464 1222.55,-464 1222.55,-464 1097.75,-464 1097.75,-464 1091.75,-464 1085.75,-458 1085.75,-452 1085.75,-452 1085.75,-36 1085.75,-36 1085.75,-30 1091.75,-24 1097.75,-24"/>
<text xml:space="preserve" text-anchor="middle" x="1114.75" y="-448.6" font-family="Sans-Serif" font-size="12.00" fill="#2d3436">Regions</text>
</g>
<g id="clust12" class="cluster">
<title>cluster_Region A..Z</title>
<path fill="#fdf7e3" stroke="#aeb6be" d="M1105.75,-32C1105.75,-32 1214.55,-32 1214.55,-32 1220.55,-32 1226.55,-38 1226.55,-44 1226.55,-44 1226.55,-420 1226.55,-420 1226.55,-426 1220.55,-432 1214.55,-432 1214.55,-432 1105.75,-432 1105.75,-432 1099.75,-432 1093.75,-426 1093.75,-420 1093.75,-420 1093.75,-44 1093.75,-44 1093.75,-38 1099.75,-32 1105.75,-32"/>
<text xml:space="preserve" text-anchor="middle" x="1132.88" y="-416.6" font-family="Sans-Serif" font-size="12.00" fill="#2d3436">Region A..Z</text>
</g>
<g id="clust13" class="cluster">
<title>cluster_Windows Targets</title>
<path fill="#e5f5fd" stroke="#aeb6be" d="M1113.75,-224C1113.75,-224 1206.55,-224 1206.55,-224 1212.55,-224 1218.55,-230 1218.55,-236 1218.55,-236 1218.55,-388 1218.55,-388 1218.55,-394 1212.55,-400 1206.55,-400 1206.55,-400 1113.75,-400 1113.75,-400 1107.75,-400 1101.75,-394 1101.75,-388 1101.75,-388 1101.75,-236 1101.75,-236 1101.75,-230 1107.75,-224 1113.75,-224"/>
<text xml:space="preserve" text-anchor="middle" x="1154.75" y="-384.6" font-family="Sans-Serif" font-size="12.00" fill="#2d3436">Windows Targets</text>
</g>
<g id="clust14" class="cluster">
<title>cluster_Linux Targets</title>
<path fill="#e5f5fd" stroke="#aeb6be" d="M1113.75,-40C1113.75,-40 1206.55,-40 1206.55,-40 1212.55,-40 1218.55,-46 1218.55,-52 1218.55,-52 1218.55,-204 1218.55,-204 1218.55,-210 1212.55,-216 1206.55,-216 1206.55,-216 1113.75,-216 1113.75,-216 1107.75,-216 1101.75,-210 1101.75,-204 1101.75,-204 1101.75,-52 1101.75,-52 1101.75,-46 1107.75,-40 1113.75,-40"/>
<text xml:space="preserve" text-anchor="middle" x="1145" y="-200.6" font-family="Sans-Serif" font-size="12.00" fill="#2d3436">Linux Targets</text>
</g>
<!-- 456cdeb6b15b436fbd0148218224afb9 -->
<g id="node1" class="node">
<title>456cdeb6b15b436fbd0148218224afb9</title>
<image xlink:href="C:\Workspace\code\patching\ec2\.venv\Lib\site-packages\resources/aws/integration\eventbridge.png" width="100.8px" height="100.8px" preserveAspectRatio="xMinYMin meet" x="475.35" y="-879.4"/>
<text xml:space="preserve" text-anchor="middle" x="525.75" y="-766.45" font-family="Segoe UI" font-size="12.00" fill="#2d3436">Schedule / Trigger</text>
</g>
<!-- 7e7343ab0ad0453093fcce551873575f -->
<g id="node2" class="node">
<title>7e7343ab0ad0453093fcce551873575f</title>
<image xlink:href="C:\Workspace\code\patching\ec2\.venv\Lib\site-packages\resources/aws/integration\step-functions.png" width="100.8px" height="100.8px" preserveAspectRatio="xMinYMin meet" x="649.15" y="-879.4"/>
<text xml:space="preserve" text-anchor="middle" x="699.55" y="-769.3" font-family="Segoe UI" font-size="12.00" fill="#2d3436">State Machine</text>
<text xml:space="preserve" text-anchor="middle" x="699.55" y="-752.05" font-family="Segoe UI" font-size="12.00" fill="#2d3436">Waves → Accounts → Regions</text>
</g>
<!-- 456cdeb6b15b436fbd0148218224afb9&#45;&gt;7e7343ab0ad0453093fcce551873575f -->
<g id="edge1" class="edge">
<title>456cdeb6b15b436fbd0148218224afb9&#45;&gt;7e7343ab0ad0453093fcce551873575f</title>
<path fill="none" stroke="#666666" d="M576.02,-829C576.02,-829 637.88,-829 637.88,-829"/>
<polygon fill="#666666" stroke="#666666" points="637.88,-832.5 647.88,-829 637.88,-825.5 637.88,-832.5"/>
</g>
<!-- ec15e200e6fe4014a49653e1f9c272a9 -->
<g id="node3" class="node">
<title>ec15e200e6fe4014a49653e1f9c272a9</title>
<image xlink:href="C:\Workspace\code\patching\ec2\.venv\Lib\site-packages\resources/aws/compute\lambda.png" width="100.8px" height="100.8px" preserveAspectRatio="xMinYMin meet" x="822.95" y="-1384.4"/>
<text xml:space="preserve" text-anchor="middle" x="873.35" y="-1271.45" font-family="Segoe UI" font-size="12.00" fill="#2d3436">PreEC2Inventory</text>
</g>
<!-- 7e7343ab0ad0453093fcce551873575f&#45;&gt;ec15e200e6fe4014a49653e1f9c272a9 -->
<g id="edge2" class="edge">
<title>7e7343ab0ad0453093fcce551873575f&#45;&gt;ec15e200e6fe4014a49653e1f9c272a9</title>
<path fill="none" stroke="#666666" d="M699.6,-911.62C699.6,-1039.55 699.6,-1271 699.6,-1271 699.6,-1271 811.58,-1271 811.58,-1271"/>
<polygon fill="#666666" stroke="#666666" points="811.58,-1274.5 821.58,-1271 811.58,-1267.5 811.58,-1274.5"/>
</g>
<!-- b040db0dd67c4603afdcfd95d556c362 -->
<g id="node4" class="node">
<title>b040db0dd67c4603afdcfd95d556c362</title>
<image xlink:href="C:\Workspace\code\patching\ec2\.venv\Lib\site-packages\resources/aws/compute\lambda.png" width="100.8px" height="100.8px" preserveAspectRatio="xMinYMin meet" x="822.95" y="-844.4"/>
<text xml:space="preserve" text-anchor="middle" x="873.35" y="-731.45" font-family="Segoe UI" font-size="12.00" fill="#2d3436">SendSsmCommand</text>
</g>
<!-- 7e7343ab0ad0453093fcce551873575f&#45;&gt;b040db0dd67c4603afdcfd95d556c362 -->
<g id="edge3" class="edge">
<title>7e7343ab0ad0453093fcce551873575f&#45;&gt;b040db0dd67c4603afdcfd95d556c362</title>
<path fill="none" stroke="#666666" d="M749.82,-804.3C749.82,-804.3 811.68,-804.3 811.68,-804.3"/>
<polygon fill="#666666" stroke="#666666" points="811.68,-807.8 821.68,-804.3 811.68,-800.8 811.68,-807.8"/>
</g>
<!-- dbf0d7db6b074677aa8716749c1f9ecb -->
<g id="node5" class="node">
<title>dbf0d7db6b074677aa8716749c1f9ecb</title>
<image xlink:href="C:\Workspace\code\patching\ec2\.venv\Lib\site-packages\resources/aws/compute\lambda.png" width="100.8px" height="100.8px" preserveAspectRatio="xMinYMin meet" x="822.95" y="-1024.4"/>
<text xml:space="preserve" text-anchor="middle" x="873.35" y="-911.45" font-family="Segoe UI" font-size="12.00" fill="#2d3436">PollSsmCommand</text>
</g>
<!-- 7e7343ab0ad0453093fcce551873575f&#45;&gt;dbf0d7db6b074677aa8716749c1f9ecb -->
<g id="edge4" class="edge">
<title>7e7343ab0ad0453093fcce551873575f&#45;&gt;dbf0d7db6b074677aa8716749c1f9ecb</title>
<path fill="none" stroke="#666666" d="M749.78,-895.8C808.75,-895.8 898.6,-895.8 898.6,-895.8 898.6,-895.8 898.6,-896.79 898.6,-896.79"/>
<polygon fill="#666666" stroke="#666666" points="895.1,-894.19 898.6,-904.19 902.1,-894.19 895.1,-894.19"/>
</g>
<!-- 212cc1589fb84644b8fa0a8abf109287 -->
<g id="node6" class="node">
<title>212cc1589fb84644b8fa0a8abf109287</title>
<image xlink:href="C:\Workspace\code\patching\ec2\.venv\Lib\site-packages\resources/aws/compute\lambda.png" width="100.8px" height="100.8px" preserveAspectRatio="xMinYMin meet" x="822.95" y="-1204.4"/>
<text xml:space="preserve" text-anchor="middle" x="873.35" y="-1091.45" font-family="Segoe UI" font-size="12.00" fill="#2d3436">PostEC2Verify</text>
</g>
<!-- 7e7343ab0ad0453093fcce551873575f&#45;&gt;212cc1589fb84644b8fa0a8abf109287 -->
<g id="edge5" class="edge">
<title>7e7343ab0ad0453093fcce551873575f&#45;&gt;212cc1589fb84644b8fa0a8abf109287</title>
<path fill="none" stroke="#666666" d="M724.6,-911.54C724.6,-988.34 724.6,-1091 724.6,-1091 724.6,-1091 811.48,-1091 811.48,-1091"/>
<polygon fill="#666666" stroke="#666666" points="811.48,-1094.5 821.48,-1091 811.48,-1087.5 811.48,-1094.5"/>
</g>
<!-- 2b3cc23b6ad341ae93adcd3b1921ecfb -->
<g id="node7" class="node">
<title>2b3cc23b6ad341ae93adcd3b1921ecfb</title>
<image xlink:href="C:\Workspace\code\patching\ec2\.venv\Lib\site-packages\resources/aws/integration\simple-notification-service-sns.png" width="100.8px" height="100.8px" preserveAspectRatio="xMinYMin meet" x="1327.28" y="-1442.4"/>
<text xml:space="preserve" text-anchor="middle" x="1377.68" y="-1329.45" font-family="Segoe UI" font-size="12.00" fill="#2d3436">Notifications</text>
</g>
<!-- 7e7343ab0ad0453093fcce551873575f&#45;&gt;2b3cc23b6ad341ae93adcd3b1921ecfb -->
<g id="edge6" class="edge">
<title>7e7343ab0ad0453093fcce551873575f&#45;&gt;2b3cc23b6ad341ae93adcd3b1921ecfb</title>
<path fill="none" stroke="#666666" d="M674.6,-911.5C674.6,-1076.48 674.6,-1431.4 674.6,-1431.4 674.6,-1431.4 1315.88,-1431.4 1315.88,-1431.4"/>
<polygon fill="#666666" stroke="#666666" points="1315.88,-1434.9 1325.88,-1431.4 1315.88,-1427.9 1315.88,-1434.9"/>
</g>
<!-- d8445971e3a6410da17d5aa4fbc62a7e -->
<g id="node15" class="node">
<title>d8445971e3a6410da17d5aa4fbc62a7e</title>
<image xlink:href="C:\Workspace\code\patching\ec2\.venv\Lib\site-packages\resources/aws/management\cloudwatch.png" width="100.8px" height="100.8px" preserveAspectRatio="xMinYMin meet" x="1327.28" y="-1262.4"/>
<text xml:space="preserve" text-anchor="middle" x="1377.68" y="-1149.45" font-family="Segoe UI" font-size="12.00" fill="#2d3436">Dashboards &amp; Alarms</text>
</g>
<!-- 7e7343ab0ad0453093fcce551873575f&#45;&gt;d8445971e3a6410da17d5aa4fbc62a7e -->
<g id="edge22" class="edge">
<title>7e7343ab0ad0453093fcce551873575f&#45;&gt;d8445971e3a6410da17d5aa4fbc62a7e</title>
<path fill="none" stroke="#666666" d="M749.82,-867C909.47,-867 1394.6,-867 1394.6,-867 1394.6,-867 1394.6,-1132.33 1394.6,-1132.33"/>
<polygon fill="#666666" stroke="#666666" points="1391.1,-1132.33 1394.6,-1142.33 1398.1,-1132.33 1391.1,-1132.33"/>
</g>
<!-- 09e0a3b057b34625add6b33c426c79ba -->
<g id="node12" class="node">
<title>09e0a3b057b34625add6b33c426c79ba</title>
<image xlink:href="C:\Workspace\code\patching\ec2\.venv\Lib\site-packages\resources/aws/database\dynamodb.png" width="100.8px" height="100.8px" preserveAspectRatio="xMinYMin meet" x="1109.75" y="-1218.4"/>
<text xml:space="preserve" text-anchor="middle" x="1160.15" y="-1108.3" font-family="Segoe UI" font-size="12.00" fill="#2d3436">Execution State</text>
<text xml:space="preserve" text-anchor="middle" x="1160.15" y="-1091.05" font-family="Segoe UI" font-size="12.00" fill="#2d3436">(TTL / PITR)</text>
</g>
<!-- ec15e200e6fe4014a49653e1f9c272a9&#45;&gt;09e0a3b057b34625add6b33c426c79ba -->
<g id="edge11" class="edge">
<title>ec15e200e6fe4014a49653e1f9c272a9&#45;&gt;09e0a3b057b34625add6b33c426c79ba</title>
<path fill="none" stroke="#666666" d="M923.71,-1275.47C1006.1,-1275.47 1160.6,-1275.47 1160.6,-1275.47 1160.6,-1275.47 1160.6,-1262.06 1160.6,-1262.06"/>
<polygon fill="#666666" stroke="#666666" points="1164.1,-1262.06 1160.6,-1252.06 1157.1,-1262.06 1164.1,-1262.06"/>
</g>
<!-- 42afe5b0875148d58a6ba795506d5687 -->
<g id="node17" class="node">
<title>42afe5b0875148d58a6ba795506d5687</title>
<image xlink:href="C:\Workspace\code\patching\ec2\.venv\Lib\site-packages\resources/aws/security\identity-and-access-management-iam.png" width="100.8px" height="100.8px" preserveAspectRatio="xMinYMin meet" x="1109.75" y="-605.4"/>
<text xml:space="preserve" text-anchor="middle" x="1160.15" y="-495.3" font-family="Segoe UI" font-size="12.00" fill="#2d3436">Cross&#45;Account Execute Role</text>
<text xml:space="preserve" text-anchor="middle" x="1160.15" y="-478.05" font-family="Segoe UI" font-size="12.00" fill="#2d3436">(ExternalId)</text>
</g>
<!-- ec15e200e6fe4014a49653e1f9c272a9&#45;&gt;42afe5b0875148d58a6ba795506d5687 -->
<g id="edge25" class="edge">
<title>ec15e200e6fe4014a49653e1f9c272a9&#45;&gt;42afe5b0875148d58a6ba795506d5687</title>
<path fill="none" stroke="#7f7f7f" stroke-dasharray="5,2" d="M923.28,-1270.53C974.77,-1270.53 1047.6,-1270.53 1047.6,-1270.53 1047.6,-1270.53 1047.6,-582.6 1047.6,-582.6 1047.6,-582.6 1098.29,-582.6 1098.29,-582.6"/>
<polygon fill="#7f7f7f" stroke="#7f7f7f" points="1098.29,-586.1 1108.29,-582.6 1098.29,-579.1 1098.29,-586.1"/>
<text xml:space="preserve" text-anchor="middle" x="1010.75" y="-932.15" font-family="Sans-Serif" font-size="13.00" fill="#2d3436">AssumeRole</text>
</g>
<!-- b040db0dd67c4603afdcfd95d556c362&#45;&gt;09e0a3b057b34625add6b33c426c79ba -->
<g id="edge12" class="edge">
<title>b040db0dd67c4603afdcfd95d556c362&#45;&gt;09e0a3b057b34625add6b33c426c79ba</title>
<path fill="none" stroke="#666666" d="M923.56,-771.2C984.32,-771.2 1078.6,-771.2 1078.6,-771.2 1078.6,-771.2 1078.6,-1154 1078.6,-1154 1078.6,-1154 1098.38,-1154 1098.38,-1154"/>
<polygon fill="#666666" stroke="#666666" points="1098.38,-1157.5 1108.38,-1154 1098.38,-1150.5 1098.38,-1157.5"/>
</g>
<!-- 2afcb32428204b19a690dc693df6188d -->
<g id="node13" class="node">
<title>2afcb32428204b19a690dc693df6188d</title>
<image xlink:href="C:\Workspace\code\patching\ec2\.venv\Lib\site-packages\resources/aws/storage\simple-storage-service-s3.png" width="100.8px" height="100.8px" preserveAspectRatio="xMinYMin meet" x="1109.75" y="-1009.4"/>
<text xml:space="preserve" text-anchor="middle" x="1160.15" y="-899.3" font-family="Segoe UI" font-size="12.00" fill="#2d3436">Artifacts &amp; Outputs</text>
<text xml:space="preserve" text-anchor="middle" x="1160.15" y="-882.05" font-family="Segoe UI" font-size="12.00" fill="#2d3436">(SSE&#45;KMS)</text>
</g>
<!-- b040db0dd67c4603afdcfd95d556c362&#45;&gt;2afcb32428204b19a690dc693df6188d -->
<g id="edge16" class="edge">
<title>b040db0dd67c4603afdcfd95d556c362&#45;&gt;2afcb32428204b19a690dc693df6188d</title>
<path fill="none" stroke="#666666" d="M873.6,-862.31C873.6,-875.86 873.6,-886 873.6,-886 873.6,-886 1098.4,-886 1098.4,-886"/>
<polygon fill="#666666" stroke="#666666" points="1098.4,-889.5 1108.4,-886 1098.4,-882.5 1098.4,-889.5"/>
</g>
<!-- b040db0dd67c4603afdcfd95d556c362&#45;&gt;42afe5b0875148d58a6ba795506d5687 -->
<g id="edge26" class="edge">
<title>b040db0dd67c4603afdcfd95d556c362&#45;&gt;42afe5b0875148d58a6ba795506d5687</title>
<path fill="none" stroke="#7f7f7f" stroke-dasharray="5,2" d="M923.55,-816.8C1001.7,-816.8 1143.6,-816.8 1143.6,-816.8 1143.6,-816.8 1143.6,-648.99 1143.6,-648.99"/>
<polygon fill="#7f7f7f" stroke="#7f7f7f" points="1147.1,-648.99 1143.6,-638.99 1140.1,-648.99 1147.1,-648.99"/>
<text xml:space="preserve" text-anchor="middle" x="1010.75" y="-571.15" font-family="Sans-Serif" font-size="13.00" fill="#2d3436">AssumeRole</text>
</g>
<!-- 9804c4e1bd3f44cd870fe6bbb332ca01 -->
<g id="node18" class="node">
<title>9804c4e1bd3f44cd870fe6bbb332ca01</title>
<image xlink:href="C:\Workspace\code\patching\ec2\.venv\Lib\site-packages\resources/aws/compute\ec2.png" width="100.8px" height="100.8px" preserveAspectRatio="xMinYMin meet" x="1109.75" y="-350.4"/>
<text xml:space="preserve" text-anchor="middle" x="1160.15" y="-237.45" font-family="Segoe UI" font-size="12.00" fill="#2d3436">Windows (Tagged)</text>
</g>
<!-- b040db0dd67c4603afdcfd95d556c362&#45;&gt;9804c4e1bd3f44cd870fe6bbb332ca01 -->
<g id="edge29" class="edge">
<title>b040db0dd67c4603afdcfd95d556c362&#45;&gt;9804c4e1bd3f44cd870fe6bbb332ca01</title>
<path fill="none" stroke="steelblue" d="M890.6,-725.64C890.6,-585.18 890.6,-277.2 890.6,-277.2 890.6,-277.2 1098.25,-277.2 1098.25,-277.2"/>
<polygon fill="steelblue" stroke="steelblue" points="1098.25,-280.7 1108.25,-277.2 1098.25,-273.7 1098.25,-280.7"/>
<text xml:space="preserve" text-anchor="middle" x="1010.75" y="-317.15" font-family="Sans-Serif" font-size="13.00" fill="#2d3436">RunPatchBaseline</text>
</g>
<!-- eb62ee7c74f74279a4ea6d7731ebf0d8 -->
<g id="node19" class="node">
<title>eb62ee7c74f74279a4ea6d7731ebf0d8</title>
<image xlink:href="C:\Workspace\code\patching\ec2\.venv\Lib\site-packages\resources/aws/compute\ec2.png" width="100.8px" height="100.8px" preserveAspectRatio="xMinYMin meet" x="1109.75" y="-166.4"/>
<text xml:space="preserve" text-anchor="middle" x="1160.15" y="-53.45" font-family="Segoe UI" font-size="12.00" fill="#2d3436">Linux (Tagged)</text>
</g>
<!-- b040db0dd67c4603afdcfd95d556c362&#45;&gt;eb62ee7c74f74279a4ea6d7731ebf0d8 -->
<g id="edge30" class="edge">
<title>b040db0dd67c4603afdcfd95d556c362&#45;&gt;eb62ee7c74f74279a4ea6d7731ebf0d8</title>
<path fill="none" stroke="steelblue" d="M856.6,-725.85C856.6,-549.74 856.6,-93.2 856.6,-93.2 856.6,-93.2 1098.51,-93.2 1098.51,-93.2"/>
<polygon fill="steelblue" stroke="steelblue" points="1098.51,-96.7 1108.51,-93.2 1098.51,-89.7 1098.51,-96.7"/>
<text xml:space="preserve" text-anchor="middle" x="1010.75" y="-193.15" font-family="Sans-Serif" font-size="13.00" fill="#2d3436">RunPatchBaseline</text>
</g>
<!-- dbf0d7db6b074677aa8716749c1f9ecb&#45;&gt;09e0a3b057b34625add6b33c426c79ba -->
<g id="edge13" class="edge">
<title>dbf0d7db6b074677aa8716749c1f9ecb&#45;&gt;09e0a3b057b34625add6b33c426c79ba</title>
<path fill="none" stroke="#666666" d="M856.6,-1042.1C856.6,-1048.75 856.6,-1053.1 856.6,-1053.1 856.6,-1053.1 1185.6,-1053.1 1185.6,-1053.1 1185.6,-1053.1 1185.6,-1073.9 1185.6,-1073.9"/>
<polygon fill="#666666" stroke="#666666" points="1182.1,-1073.9 1185.6,-1083.9 1189.1,-1073.9 1182.1,-1073.9"/>
</g>
<!-- dbf0d7db6b074677aa8716749c1f9ecb&#45;&gt;2afcb32428204b19a690dc693df6188d -->
<g id="edge17" class="edge">
<title>dbf0d7db6b074677aa8716749c1f9ecb&#45;&gt;2afcb32428204b19a690dc693df6188d</title>
<path fill="none" stroke="#666666" d="M923.63,-1007.75C923.63,-1007.75 1098.41,-1007.75 1098.41,-1007.75"/>
<polygon fill="#666666" stroke="#666666" points="1098.41,-1011.25 1108.41,-1007.75 1098.41,-1004.25 1098.41,-1011.25"/>
</g>
<!-- dbf0d7db6b074677aa8716749c1f9ecb&#45;&gt;42afe5b0875148d58a6ba795506d5687 -->
<g id="edge27" class="edge">
<title>dbf0d7db6b074677aa8716749c1f9ecb&#45;&gt;42afe5b0875148d58a6ba795506d5687</title>
<path fill="none" stroke="#7f7f7f" stroke-dasharray="5,2" d="M848.6,-905.7C848.6,-886.91 848.6,-871.6 848.6,-871.6 848.6,-871.6 1176.6,-871.6 1176.6,-871.6 1176.6,-871.6 1176.6,-649.28 1176.6,-649.28"/>
<polygon fill="#7f7f7f" stroke="#7f7f7f" points="1180.1,-649.28 1176.6,-639.28 1173.1,-649.28 1180.1,-649.28"/>
<text xml:space="preserve" text-anchor="middle" x="1010.75" y="-731.15" font-family="Sans-Serif" font-size="13.00" fill="#2d3436">AssumeRole</text>
</g>
<!-- dbf0d7db6b074677aa8716749c1f9ecb&#45;&gt;9804c4e1bd3f44cd870fe6bbb332ca01 -->
<g id="edge31" class="edge">
<title>dbf0d7db6b074677aa8716749c1f9ecb&#45;&gt;9804c4e1bd3f44cd870fe6bbb332ca01</title>
<path fill="none" stroke="steelblue" d="M935.08,-973.7C935.08,-973.7 985.6,-973.7 985.6,-973.7 985.6,-973.7 985.6,-322.8 985.6,-322.8 985.6,-322.8 1058.55,-322.8 1110.13,-322.8"/>
<polygon fill="steelblue" stroke="steelblue" points="935.08,-970.2 925.08,-973.7 935.08,-977.2 935.08,-970.2"/>
<text xml:space="preserve" text-anchor="middle" x="1010.75" y="-491.15" font-family="Sans-Serif" font-size="13.00" fill="#2d3436">GetResults</text>
</g>
<!-- dbf0d7db6b074677aa8716749c1f9ecb&#45;&gt;eb62ee7c74f74279a4ea6d7731ebf0d8 -->
<g id="edge32" class="edge">
<title>dbf0d7db6b074677aa8716749c1f9ecb&#45;&gt;eb62ee7c74f74279a4ea6d7731ebf0d8</title>
<path fill="none" stroke="steelblue" d="M934.93,-939.65C934.93,-939.65 954.6,-939.65 954.6,-939.65 954.6,-939.65 954.6,-138.8 954.6,-138.8 954.6,-138.8 1049.01,-138.8 1109.87,-138.8"/>
<polygon fill="steelblue" stroke="steelblue" points="934.93,-936.15 924.93,-939.65 934.93,-943.15 934.93,-936.15"/>
<text xml:space="preserve" text-anchor="middle" x="1010.75" y="-396.15" font-family="Sans-Serif" font-size="13.00" fill="#2d3436">GetResults</text>
</g>
<!-- 212cc1589fb84644b8fa0a8abf109287&#45;&gt;09e0a3b057b34625add6b33c426c79ba -->
<g id="edge14" class="edge">
<title>212cc1589fb84644b8fa0a8abf109287&#45;&gt;09e0a3b057b34625add6b33c426c79ba</title>
<path fill="none" stroke="#666666" d="M923.63,-1188.2C923.63,-1188.2 1098.41,-1188.2 1098.41,-1188.2"/>
<polygon fill="#666666" stroke="#666666" points="1098.41,-1191.7 1108.41,-1188.2 1098.41,-1184.7 1098.41,-1191.7"/>
</g>
<!-- 212cc1589fb84644b8fa0a8abf109287&#45;&gt;2afcb32428204b19a690dc693df6188d -->
<g id="edge18" class="edge">
<title>212cc1589fb84644b8fa0a8abf109287&#45;&gt;2afcb32428204b19a690dc693df6188d</title>
<path fill="none" stroke="#666666" d="M890.6,-1085.89C890.6,-1079.01 890.6,-1074.5 890.6,-1074.5 890.6,-1074.5 1134.6,-1074.5 1134.6,-1074.5 1134.6,-1074.5 1134.6,-1053.22 1134.6,-1053.22"/>
<polygon fill="#666666" stroke="#666666" points="1138.1,-1053.22 1134.6,-1043.22 1131.1,-1053.22 1138.1,-1053.22"/>
</g>
<!-- 212cc1589fb84644b8fa0a8abf109287&#45;&gt;42afe5b0875148d58a6ba795506d5687 -->
<g id="edge28" class="edge">
<title>212cc1589fb84644b8fa0a8abf109287&#45;&gt;42afe5b0875148d58a6ba795506d5687</title>
<path fill="none" stroke="#7f7f7f" stroke-dasharray="5,2" d="M923.45,-1119.8C964.76,-1119.8 1016.6,-1119.8 1016.6,-1119.8 1016.6,-1119.8 1016.6,-527.4 1016.6,-527.4 1016.6,-527.4 1098.43,-527.4 1098.43,-527.4"/>
<polygon fill="#7f7f7f" stroke="#7f7f7f" points="1098.43,-530.9 1108.43,-527.4 1098.43,-523.9 1098.43,-530.9"/>
<text xml:space="preserve" text-anchor="middle" x="1010.75" y="-843.15" font-family="Sans-Serif" font-size="13.00" fill="#2d3436">AssumeRole</text>
</g>
<!-- b15b24d339b14cd287017d2461f8a229 -->
<g id="node14" class="node">
<title>b15b24d339b14cd287017d2461f8a229</title>
<image xlink:href="C:\Workspace\code\patching\ec2\.venv\Lib\site-packages\resources/aws/security\key-management-service.png" width="100.8px" height="100.8px" preserveAspectRatio="xMinYMin meet" x="1533.8" y="-1150.4"/>
<text xml:space="preserve" text-anchor="middle" x="1584.2" y="-1037.45" font-family="Segoe UI" font-size="12.00" fill="#2d3436">KMS Keys</text>
</g>
<!-- 2b3cc23b6ad341ae93adcd3b1921ecfb&#45;&gt;b15b24d339b14cd287017d2461f8a229 -->
<g id="edge21" class="edge">
<title>2b3cc23b6ad341ae93adcd3b1921ecfb&#45;&gt;b15b24d339b14cd287017d2461f8a229</title>
<path fill="none" stroke="#666666" d="M1428.03,-1392C1489.28,-1392 1584.6,-1392 1584.6,-1392 1584.6,-1392 1584.6,-1179.61 1584.6,-1179.61"/>
<polygon fill="#666666" stroke="#666666" points="1588.1,-1179.61 1584.6,-1169.61 1581.1,-1179.61 1588.1,-1179.61"/>
</g>
<!-- 17ab3d89e19a46948b4fc5b81ed4188c -->
<g id="node8" class="node">
<title>17ab3d89e19a46948b4fc5b81ed4188c</title>
<image xlink:href="C:\Workspace\code\patching\ec2\.venv\Lib\site-packages\resources/aws/network\api-gateway.png" width="100.8px" height="100.8px" preserveAspectRatio="xMinYMin meet" x="24" y="-1139.4"/>
<text xml:space="preserve" text-anchor="middle" x="74.4" y="-1026.45" font-family="Segoe UI" font-size="12.00" fill="#2d3436">Approvals API</text>
</g>
<!-- c157b2a1a63341d09044ae8da82b700b -->
<g id="node9" class="node">
<title>c157b2a1a63341d09044ae8da82b700b</title>
<image xlink:href="C:\Workspace\code\patching\ec2\.venv\Lib\site-packages\resources/aws/compute\lambda.png" width="100.8px" height="100.8px" preserveAspectRatio="xMinYMin meet" x="272.55" y="-1139.4"/>
<text xml:space="preserve" text-anchor="middle" x="322.95" y="-1026.45" font-family="Segoe UI" font-size="12.00" fill="#2d3436">ApprovalAuthorizer</text>
</g>
<!-- 17ab3d89e19a46948b4fc5b81ed4188c&#45;&gt;c157b2a1a63341d09044ae8da82b700b -->
<g id="edge7" class="edge">
<title>17ab3d89e19a46948b4fc5b81ed4188c&#45;&gt;c157b2a1a63341d09044ae8da82b700b</title>
<path fill="none" stroke="#666666" d="M124.7,-1089C124.7,-1089 261.21,-1089 261.21,-1089"/>
<polygon fill="#666666" stroke="#666666" points="261.21,-1092.5 271.21,-1089 261.21,-1085.5 261.21,-1092.5"/>
<text xml:space="preserve" text-anchor="middle" x="198.68" y="-1093.15" font-family="Sans-Serif" font-size="13.00" fill="#2d3436">AuthN/AuthZ</text>
</g>
<!-- c6a69504ed564c54a8a7e078428f0b2f -->
<g id="node10" class="node">
<title>c6a69504ed564c54a8a7e078428f0b2f</title>
<image xlink:href="C:\Workspace\code\patching\ec2\.venv\Lib\site-packages\resources/aws/compute\lambda.png" width="100.8px" height="100.8px" preserveAspectRatio="xMinYMin meet" x="475.35" y="-1078.4"/>
<text xml:space="preserve" text-anchor="middle" x="525.75" y="-965.45" font-family="Segoe UI" font-size="12.00" fill="#2d3436">ApprovalCallback</text>
</g>
<!-- c157b2a1a63341d09044ae8da82b700b&#45;&gt;c6a69504ed564c54a8a7e078428f0b2f -->
<g id="edge8" class="edge">
<title>c157b2a1a63341d09044ae8da82b700b&#45;&gt;c6a69504ed564c54a8a7e078428f0b2f</title>
<path fill="none" stroke="darkgreen" stroke-width="2" d="M373.34,-1058.5C373.34,-1058.5 462.59,-1058.5 462.59,-1058.5"/>
<polygon fill="darkgreen" stroke="darkgreen" stroke-width="2" points="462.59,-1062 472.59,-1058.5 462.59,-1055 462.59,-1062"/>
<text xml:space="preserve" text-anchor="middle" x="424.35" y="-1061.15" font-family="Sans-Serif" font-size="13.00" fill="#2d3436">Allow</text>
</g>
<!-- 637c6f84e7194c62a22256319dde927a -->
<g id="node11" class="node">
<title>637c6f84e7194c62a22256319dde927a</title>
<image xlink:href="C:\Workspace\code\patching\ec2\.venv\Lib\site-packages\resources/aws/compute\lambda.png" width="100.8px" height="100.8px" preserveAspectRatio="xMinYMin meet" x="475.35" y="-1258.4"/>
<text xml:space="preserve" text-anchor="middle" x="525.75" y="-1145.45" font-family="Segoe UI" font-size="12.00" fill="#2d3436">Rejected</text>
</g>
<!-- c157b2a1a63341d09044ae8da82b700b&#45;&gt;637c6f84e7194c62a22256319dde927a -->
<g id="edge9" class="edge">
<title>c157b2a1a63341d09044ae8da82b700b&#45;&gt;637c6f84e7194c62a22256319dde927a</title>
<path fill="none" stroke="red" stroke-dasharray="5,2" d="M373.34,-1148.5C373.34,-1148.5 464.11,-1148.5 464.11,-1148.5"/>
<polygon fill="red" stroke="red" points="464.11,-1152 474.11,-1148.5 464.11,-1145 464.11,-1152"/>
<text xml:space="preserve" text-anchor="middle" x="424.35" y="-1183.15" font-family="Sans-Serif" font-size="13.00" fill="#2d3436">Deny</text>
</g>
<!-- c6a69504ed564c54a8a7e078428f0b2f&#45;&gt;7e7343ab0ad0453093fcce551873575f -->
<g id="edge10" class="edge">
<title>c6a69504ed564c54a8a7e078428f0b2f&#45;&gt;7e7343ab0ad0453093fcce551873575f</title>
<path fill="none" stroke="#666666" d="M525.6,-959.8C525.6,-931.26 525.6,-904.6 525.6,-904.6 525.6,-904.6 637.72,-904.6 637.72,-904.6"/>
<polygon fill="#666666" stroke="#666666" points="637.72,-908.1 647.72,-904.6 637.72,-901.1 637.72,-908.1"/>
</g>
<!-- c6a69504ed564c54a8a7e078428f0b2f&#45;&gt;09e0a3b057b34625add6b33c426c79ba -->
<g id="edge15" class="edge">
<title>c6a69504ed564c54a8a7e078428f0b2f&#45;&gt;09e0a3b057b34625add6b33c426c79ba</title>
<path fill="none" stroke="#666666" d="M576.1,-1063.8C726.25,-1063.8 1160.6,-1063.8 1160.6,-1063.8 1160.6,-1063.8 1160.6,-1073.88 1160.6,-1073.88"/>
<polygon fill="#666666" stroke="#666666" points="1157.1,-1073.88 1160.6,-1083.88 1164.1,-1073.88 1157.1,-1073.88"/>
</g>
<!-- 09e0a3b057b34625add6b33c426c79ba&#45;&gt;b15b24d339b14cd287017d2461f8a229 -->
<g id="edge19" class="edge">
<title>09e0a3b057b34625add6b33c426c79ba&#45;&gt;b15b24d339b14cd287017d2461f8a229</title>
<path fill="none" stroke="#666666" d="M1210.46,-1114.4C1210.46,-1114.4 1522.44,-1114.4 1522.44,-1114.4"/>
<polygon fill="#666666" stroke="#666666" points="1522.44,-1117.9 1532.44,-1114.4 1522.44,-1110.9 1522.44,-1117.9"/>
</g>
<!-- 09e0a3b057b34625add6b33c426c79ba&#45;&gt;d8445971e3a6410da17d5aa4fbc62a7e -->
<g id="edge23" class="edge">
<title>09e0a3b057b34625add6b33c426c79ba&#45;&gt;d8445971e3a6410da17d5aa4fbc62a7e</title>
<path fill="none" stroke="#666666" d="M1210.33,-1197.2C1210.33,-1197.2 1315.86,-1197.2 1315.86,-1197.2"/>
<polygon fill="#666666" stroke="#666666" points="1315.86,-1200.7 1325.86,-1197.2 1315.86,-1193.7 1315.86,-1200.7"/>
</g>
<!-- 2afcb32428204b19a690dc693df6188d&#45;&gt;b15b24d339b14cd287017d2461f8a229 -->
<g id="edge20" class="edge">
<title>2afcb32428204b19a690dc693df6188d&#45;&gt;b15b24d339b14cd287017d2461f8a229</title>
<path fill="none" stroke="#666666" d="M1210.46,-1035C1210.46,-1035 1522.44,-1035 1522.44,-1035"/>
<polygon fill="#666666" stroke="#666666" points="1522.44,-1038.5 1532.44,-1035 1522.44,-1031.5 1522.44,-1038.5"/>
</g>
<!-- 2afcb32428204b19a690dc693df6188d&#45;&gt;d8445971e3a6410da17d5aa4fbc62a7e -->
<g id="edge24" class="edge">
<title>2afcb32428204b19a690dc693df6188d&#45;&gt;d8445971e3a6410da17d5aa4fbc62a7e</title>
<path fill="none" stroke="#666666" d="M1210.47,-1038.4C1269.85,-1038.4 1360.6,-1038.4 1360.6,-1038.4 1360.6,-1038.4 1360.6,-1132.37 1360.6,-1132.37"/>
<polygon fill="#666666" stroke="#666666" points="1357.1,-1132.37 1360.6,-1142.37 1364.1,-1132.37 1357.1,-1132.37"/>
</g>
<!-- 361ef695428a4462b027882b45d6b94c -->
<g id="node16" class="node">
<title>361ef695428a4462b027882b45d6b94c</title>
<image xlink:href="C:\Workspace\code\patching\ec2\.venv\Lib\site-packages\resources/aws/management\cloudformation.png" width="100.8px" height="100.8px" preserveAspectRatio="xMinYMin meet" x="24" y="-1442.4"/>
<text xml:space="preserve" text-anchor="middle" x="74.4" y="-1329.45" font-family="Segoe UI" font-size="12.00" fill="#2d3436">CFN&#45;Only Deployments</text>
</g>
</g>
</svg>
